<svg width="19" height="27" viewBox="0 0 19 27" fill="none" xmlns="http://www.w3.org/2000/svg">
<path d="M9.50002 0C4.5375 0 0.5 4.0375 0.5 9.00002C0.5 10.4898 0.872463 11.9669 1.58053 13.277L9.00785 26.71C9.10673 26.889 9.29514 27 9.50002 27C9.70489 27 9.89331 26.889 9.99219 26.71L17.4222 13.2726C18.1276 11.9669 18.5 10.4897 18.5 8.99996C18.5 4.0375 14.4625 0 9.50002 0ZM9.50002 13.5C7.01876 13.5 5.00004 11.4813 5.00004 9.00002C5.00004 6.51876 7.01876 4.50004 9.50002 4.50004C11.9813 4.50004 14 6.51876 14 9.00002C14 11.4813 11.9813 13.5 9.50002 13.5Z" fill="#70A9A1"/>
</svg>
