<svg width="12" height="19" viewBox="0 0 12 19" fill="none" xmlns="http://www.w3.org/2000/svg">
<path d="M1.03448 9.75733L9.07891 17.7512C9.26497 17.9362 9.51288 18.0377 9.77688 18.0369C10.0409 18.036 10.2882 17.933 10.473 17.7468L11.0617 17.1545C11.4448 16.7686 11.4429 16.1433 11.0574 15.7604L4.30226 9.04764L11.0225 2.28503C11.2074 2.09883 11.309 1.85106 11.3082 1.58721C11.3073 1.32306 11.2041 1.07594 11.0181 0.890751L10.4257 0.302342C10.2395 0.117304 9.99169 0.0158229 9.72769 0.0166531C9.46369 0.0174833 9.21642 0.120521 9.03152 0.306726L1.03008 8.35836C0.844749 8.54515 0.743418 8.79409 0.744835 9.05838C0.745083 9.3237 0.847978 9.57185 1.03448 9.75733Z" fill="#CECECE"/>
</svg>
