<svg width="25" height="12" viewBox="0 0 25 12" fill="none" xmlns="http://www.w3.org/2000/svg">
<g clip-path="url(#clip0_32:300)">
<path d="M23.0034 5.28313C22.3586 4.70188 21.7061 4.12064 21.0714 3.52657C20.1953 2.70384 19.3327 1.86616 18.4622 1.03703C18.2164 0.80303 18.0778 0.545529 18.2834 0.231398C18.489 -0.0827325 18.8924 -0.0752532 19.2746 0.28589C20.4925 1.4377 21.7016 2.59699 22.914 3.75415C23.5196 4.33219 24.1174 4.91878 24.7276 5.49255C25.0941 5.8366 25.0896 6.15607 24.7276 6.50119C22.9077 8.23568 21.0911 9.97265 19.2779 11.7121C19.003 11.975 18.6846 12.1481 18.3594 11.8307C18.0108 11.491 18.2242 11.1832 18.5114 10.9097C19.8679 9.61329 21.2237 8.31688 22.5788 7.02047C22.7062 6.89866 22.8246 6.76938 23.0526 6.53431H22.2782C15.2012 6.53431 8.12682 6.53431 1.05506 6.53431C0.619262 6.53431 0.0985452 6.63048 0.00691692 6.02038C-0.0523062 5.63359 0.297446 5.46157 1.06511 5.46157H22.4H22.8894L23.0034 5.28313Z" fill="#3D405B"/>
</g>
<defs>
<clipPath id="clip0_32:300">
<rect width="25" height="12" fill="white"/>
</clipPath>
</defs>
</svg>
