<svg width="18" height="31" viewBox="0 0 18 31" fill="none" xmlns="http://www.w3.org/2000/svg">
<path d="M0.714373 13.8914L14.0292 0.505837C14.3372 0.195995 14.7489 0.0246573 15.1884 0.0234884C15.6279 0.0223195 16.0405 0.191465 16.3501 0.499665L17.3359 1.47997C17.9774 2.11874 17.9801 3.15971 17.3421 3.80091L6.16131 15.0413L17.4142 26.2345C17.7238 26.5427 17.8954 26.9542 17.8965 27.3935C17.8977 27.8332 17.7283 28.2456 17.4204 28.5557L16.4398 29.541C16.1316 29.8508 15.7201 30.0222 15.2806 30.0233C14.8411 30.0245 14.4285 29.8554 14.1189 29.5472L0.720567 16.2204C0.410232 15.9113 0.239134 15.4978 0.23894 15.0578C0.236789 14.6161 0.405686 14.202 0.714373 13.8914Z" fill="#70A9A1"/>
</svg>
