<svg width="13" height="9" viewBox="0 0 13 9" fill="none" xmlns="http://www.w3.org/2000/svg">
<path d="M7.00726 8.11133L12.7923 2.32617C12.9262 2.19236 13 2.01375 13 1.82329C13 1.63284 12.9262 1.45422 12.7923 1.32042L12.3664 0.89438C12.0888 0.617155 11.6378 0.617155 11.3606 0.89438L6.5027 5.75232L1.63936 0.88899C1.50545 0.755186 1.32694 0.681309 1.13659 0.681309C0.946033 0.681309 0.767522 0.755186 0.633507 0.88899L0.207681 1.31503C0.0737715 1.44894 0 1.62745 0 1.8179C0 2.00836 0.0737715 2.18697 0.207681 2.32078L5.99802 8.11133C6.13236 8.24545 6.31171 8.31912 6.50238 8.31869C6.69378 8.31912 6.87303 8.24545 7.00726 8.11133Z" fill="#CECECE"/>
</svg>
