<svg width="25" height="25" viewBox="0 0 25 25" fill="none" xmlns="http://www.w3.org/2000/svg">
<g clip-path="url(#clip0_9:2372)">
<path d="M24.5143 19.879L21.7428 18.0312L19.279 16.389C18.8036 16.0726 18.1646 16.1763 17.8135 16.6269L16.289 18.5868C15.9615 19.0121 15.3724 19.1343 14.9028 18.8743C13.8683 18.2989 12.645 17.7571 9.94595 15.0545C7.24686 12.352 6.70161 11.1321 6.12617 10.0977C5.86617 9.62806 5.98838 9.03896 6.41367 8.71152L8.37356 7.18698C8.82409 6.836 8.92785 6.197 8.6115 5.72147L7.01972 3.33356L5.12145 0.486128C4.79836 0.00146584 4.15159 -0.14404 3.65208 0.155517L1.46285 1.46888C0.871206 1.81746 0.436299 2.38034 0.248215 3.04083C-0.350459 5.22357 -0.471161 10.0386 7.24554 17.7553C14.9622 25.472 19.7768 25.3509 21.9596 24.7522C22.6201 24.5642 23.183 24.1293 23.5315 23.5376L24.8449 21.3484C25.1445 20.8488 24.999 20.2021 24.5143 19.879Z" fill="white"/>
<path d="M14.224 3.87914C18.2689 3.88363 21.547 7.16162 21.5515 11.2066C21.5515 11.4447 21.7444 11.6377 21.9825 11.6377C22.2206 11.6377 22.4136 11.4447 22.4136 11.2066C22.4086 6.68575 18.7449 3.02207 14.224 3.01709C13.986 3.01709 13.793 3.21006 13.793 3.44814C13.7929 3.68613 13.9859 3.87914 14.224 3.87914Z" fill="white"/>
<path d="M14.224 6.46561C16.8413 6.46869 18.9622 8.58966 18.9653 11.2069C18.9653 11.4449 19.1583 11.638 19.3964 11.638C19.6344 11.638 19.8274 11.445 19.8274 11.2069C19.8239 8.11374 17.3172 5.60708 14.224 5.60352C13.986 5.60352 13.793 5.79648 13.793 6.03457C13.793 6.27265 13.9859 6.46561 14.224 6.46561Z" fill="white"/>
<path d="M14.224 9.0515C15.4137 9.05292 16.3777 10.017 16.3791 11.2067C16.3791 11.4447 16.5721 11.6377 16.8102 11.6377C17.0482 11.6377 17.2412 11.4447 17.2412 11.2067C17.2393 9.5411 15.8896 8.19136 14.224 8.18945C13.986 8.18945 13.793 8.38242 13.793 8.6205C13.7929 8.85854 13.9859 9.0515 14.224 9.0515Z" fill="white"/>
</g>
<defs>
<clipPath id="clip0_9:2372">
<rect width="25" height="25" fill="white"/>
</clipPath>
</defs>
</svg>
