<svg width="23" height="16" viewBox="0 0 23 16" fill="none" xmlns="http://www.w3.org/2000/svg">
<g clip-path="url(#clip0_673:111338)">
<path d="M1.12268 0.150189C1.49 0.0888692 1.77739 0.00622084 2.06567 0.00533215C8.35228 -0.00177738 14.6404 -0.00177738 20.93 0.00533215C21.2192 0.00533215 21.5083 0.0942013 21.8811 0.147523C21.7077 0.325261 21.6116 0.437236 21.5057 0.539436C18.724 3.27661 15.9423 6.01318 13.1606 8.74917C12.0425 9.84759 10.9603 9.84937 9.8449 8.74917C7.06143 6.01733 4.27975 3.28223 1.49988 0.543879C1.3948 0.444346 1.29691 0.332371 1.12268 0.150189Z" fill="#70A9A1"/>
<path d="M1.24023 15.8694L8.14742 8.88696C8.45007 9.21311 8.70783 9.51527 8.99072 9.79165C10.504 11.2731 12.4933 11.2704 14.0137 9.79165C14.2903 9.52504 14.5589 9.24422 14.8498 8.95006L21.7022 15.8819C21.5083 15.9121 21.2191 15.9956 20.929 15.9965C14.6424 16.0036 8.35577 16.0036 2.06917 15.9965C1.77909 15.9965 1.4908 15.9076 1.24023 15.8694Z" fill="#70A9A1"/>
<path d="M0.149122 14.9104C0.0898479 14.5176 0.00722393 14.2315 0.00632584 13.9444C-0.00145757 9.97493 -0.00145757 6.00545 0.00632584 2.03596C0.00632584 1.75247 0.0961345 1.46897 0.151816 1.12061C2.49762 3.47742 4.77337 5.76224 7.0105 8.00796L0.149122 14.9104Z" fill="#70A9A1"/>
<path d="M16.0336 7.94319C18.2207 5.74634 20.4872 3.46922 22.833 1.11182C22.8985 1.45041 22.9928 1.71346 22.9937 1.97651C23.0027 5.98925 23.0027 10.002 22.9937 14.0147C22.9937 14.2733 22.9093 14.5311 22.8626 14.8012L16.0336 7.94319Z" fill="#70A9A1"/>
</g>
<defs>
<clipPath id="clip0_673:111338">
<rect width="23" height="16" fill="white"/>
</clipPath>
</defs>
</svg>
