<svg width="14" height="20" viewBox="0 0 14 20" fill="none" xmlns="http://www.w3.org/2000/svg">
<path d="M6.99999 0C3.32406 0 0.333313 2.99074 0.333313 6.66668C0.333313 7.7702 0.609211 8.86434 1.1337 9.8348L6.63542 19.7852C6.70867 19.9178 6.84824 20 6.99999 20C7.15175 20 7.29132 19.9178 7.36456 19.7852L12.8683 9.83152C13.3908 8.86434 13.6667 7.77016 13.6667 6.66664C13.6667 2.99074 10.6759 0 6.99999 0ZM6.99999 10C5.16202 10 3.66667 8.50465 3.66667 6.66668C3.66667 4.82871 5.16202 3.33336 6.99999 3.33336C8.83796 3.33336 10.3333 4.82871 10.3333 6.66668C10.3333 8.50465 8.83796 10 6.99999 10Z" fill="#F2CC8F"/>
</svg>
