<svg width="14" height="20" viewBox="0 0 14 20" fill="none" xmlns="http://www.w3.org/2000/svg">
<path d="M6.84777 0C3.30846 0 0.428879 2.99074 0.428879 6.66668C0.428879 7.7702 0.694522 8.86434 1.19952 9.8348L6.49675 19.7852C6.56727 19.9178 6.70165 20 6.84777 20C6.99389 20 7.12827 19.9178 7.19879 19.7852L12.498 9.83152C13.001 8.86434 13.2667 7.77016 13.2667 6.66664C13.2667 2.99074 10.3871 0 6.84777 0ZM6.84777 10C5.07811 10 3.63834 8.50465 3.63834 6.66668C3.63834 4.82871 5.07811 3.33336 6.84777 3.33336C8.61742 3.33336 10.0572 4.82871 10.0572 6.66668C10.0572 8.50465 8.61742 10 6.84777 10Z" fill="#70A9A1"/>
</svg>
