<svg width="21" height="21" viewBox="0 0 21 21" fill="none" xmlns="http://www.w3.org/2000/svg">
<path d="M20.5916 16.6984L18.2636 15.1462L16.194 13.7667C15.7946 13.501 15.2578 13.5881 14.963 13.9666L13.6823 15.6129C13.4073 15.9702 12.9124 16.0728 12.5179 15.8544C11.649 15.371 10.6214 14.9159 8.35419 12.6458C6.08695 10.3756 5.62894 9.351 5.14557 8.48206C4.92717 8.08757 5.02983 7.59272 5.38707 7.31768L7.03338 6.03706C7.41182 5.74224 7.49898 5.20548 7.23324 4.80603L5.89615 2.80019L4.30161 0.408348C4.03021 0.0012313 3.48692 -0.120994 3.06734 0.130634L1.22838 1.23386C0.731403 1.52667 0.366081 1.99949 0.208091 2.5543C-0.294796 4.3878 -0.396185 8.43243 6.08585 14.9145C12.5679 21.3965 16.6121 21.2948 18.4456 20.7919C19.0004 20.6339 19.4733 20.2686 19.7661 19.7716L20.8693 17.9326C21.121 17.513 20.9987 16.9698 20.5916 16.6984Z" fill="#70A9A1"/>
<path d="M11.9476 3.25855C15.3454 3.26232 18.0989 6.01583 18.1027 9.41365C18.1027 9.6136 18.2648 9.77573 18.4648 9.77573C18.6647 9.77573 18.8269 9.61364 18.8269 9.41365C18.8227 5.6161 15.7452 2.53861 11.9477 2.53442C11.7477 2.53442 11.5856 2.69652 11.5856 2.89651C11.5855 3.09641 11.7476 3.25855 11.9476 3.25855Z" fill="#70A9A1"/>
<path d="M11.9475 5.43095C14.1461 5.43353 15.9276 7.21515 15.9302 9.41364C15.9302 9.61359 16.0923 9.77572 16.2923 9.77572C16.4923 9.77572 16.6544 9.61363 16.6544 9.41364C16.6514 6.81538 14.5458 4.70978 11.9475 4.70679C11.7476 4.70679 11.5854 4.86888 11.5854 5.06887C11.5854 5.26886 11.7475 5.43095 11.9475 5.43095Z" fill="#70A9A1"/>
<path d="M11.9476 7.60327C12.9469 7.60446 13.7568 8.41427 13.7579 9.4136C13.7579 9.61355 13.92 9.77568 14.12 9.77568C14.32 9.77568 14.4821 9.61359 14.4821 9.4136C14.4805 8.01453 13.3467 6.88075 11.9477 6.87915C11.7477 6.87915 11.5856 7.04124 11.5856 7.24123C11.5855 7.44118 11.7476 7.60327 11.9476 7.60327Z" fill="#70A9A1"/>
</svg>
