<svg width="30" height="30" viewBox="0 0 30 30" fill="none" xmlns="http://www.w3.org/2000/svg">
<path d="M29.4171 23.8548L26.0913 21.6374L23.1348 19.6668C22.5642 19.2871 21.7974 19.4116 21.3761 19.9523L19.5467 22.3042C19.1537 22.8145 18.4468 22.9612 17.8832 22.6492C16.6419 21.9586 15.174 21.3085 11.935 18.0654C8.69614 14.8223 8.04183 13.3586 7.35131 12.1172C7.0393 11.5537 7.18596 10.8467 7.6963 10.4538L10.0482 8.62437C10.5888 8.20321 10.7133 7.4364 10.3337 6.86576L8.42356 4.00027L6.14564 0.583354C5.75793 0.00175901 4.98181 -0.172848 4.3824 0.18662L1.75532 1.76266C1.04535 2.18095 0.523461 2.85641 0.297761 3.649C-0.420649 6.26829 -0.56549 12.0463 8.69455 21.3064C17.9546 30.5664 23.7321 30.4211 26.3514 29.7026C27.144 29.477 27.8194 28.9551 28.2377 28.2451L29.8138 25.6181C30.1733 25.0186 29.9987 24.2425 29.4171 23.8548Z" fill="white"/>
<path d="M17.0687 4.65507C21.9226 4.66046 25.8563 8.59404 25.8617 13.4481C25.8617 13.7337 26.0932 13.9653 26.3789 13.9653C26.6646 13.9653 26.8962 13.7338 26.8962 13.4481C26.8902 8.023 22.4938 3.62658 17.0687 3.62061C16.7831 3.62061 16.5515 3.85217 16.5515 4.13787C16.5514 4.42345 16.783 4.65507 17.0687 4.65507Z" fill="white"/>
<path d="M17.0687 7.75852C20.2094 7.76221 22.7545 10.3074 22.7582 13.4481C22.7582 13.7337 22.9898 13.9653 23.2755 13.9653C23.5611 13.9653 23.7927 13.7338 23.7927 13.4481C23.7885 9.73627 20.7805 6.72828 17.0687 6.724C16.783 6.724 16.5514 6.95556 16.5514 7.24126C16.5514 7.52696 16.783 7.75852 17.0687 7.75852Z" fill="white"/>
<path d="M17.0687 10.8619C18.4963 10.8636 19.6531 12.0205 19.6548 13.4481C19.6548 13.7337 19.8864 13.9654 20.1721 13.9654C20.4577 13.9654 20.6894 13.7338 20.6894 13.4481C20.6871 11.4494 19.0674 9.82974 17.0687 9.82745C16.7831 9.82745 16.5515 10.059 16.5515 10.3447C16.5514 10.6304 16.783 10.8619 17.0687 10.8619Z" fill="white"/>
</svg>
