<svg width="960" height="774" viewBox="0 0 960 774" fill="none" xmlns="http://www.w3.org/2000/svg">
<mask id="mask0_836:26613" style="mask-type:alpha" maskUnits="userSpaceOnUse" x="0" y="-1" width="961" height="775">
<path fill-rule="evenodd" clip-rule="evenodd" d="M545.356 -1H0V774H213.791H545.356H877.867C930.065 693.032 961 592.355 961 483.25C961 215.806 775.122 -1 545.829 -1C545.671 -1 545.513 -0.999897 545.356 -0.999692V-1Z" fill="#C4C4C4"/>
</mask>
<g mask="url(#mask0_836:26613)">
<path d="M-208.16 483.53L1098.21 543.97L1027.4 -10H-219.86L-208.16 483.53Z" fill="#40798C"/>
<path d="M841.79 75.43L842.51 75.35C841 75.5 841.83 75.43 841.79 75.43Z" fill="#40798C"/>
<path d="M826.98 77.61L827.22 77.5L825.07 77.97L826.98 77.61Z" fill="#40798C"/>
<path d="M813.08 79.14C814.49 79.69 818.08 78.51 820.61 78.43L821.03 78.5L822.09 77.99C820.59 78.18 818.87 78.46 817.27 78.71C816.46 78.83 815.69 78.95 814.98 79.04C814.27 79.13 813.62 79.15 813.08 79.14Z" fill="#40798C"/>
<path d="M805.47 78.08C805.97 78.36 803.9 78.41 807.21 78.08L806.89 78.02L805.47 78.08Z" fill="#40798C"/>
<path d="M806.89 78C808.36 77.92 805.89 77.79 806.89 78V78Z" fill="#40798C"/>
<path d="M800.15 78.5C800.78 78.4 801.42 78.28 802.05 78.15C801.63 77.99 799.9 77.96 800.53 77.81C798.56 78 799 78.19 800.15 78.5Z" fill="#40798C"/>
<path d="M798.38 79.18L799.38 79.03C799.19 79 798.92 78.92 798.38 79.18Z" fill="#40798C"/>
<path d="M801.47 78.7L799.37 79.03C799.66 79.16 799.72 79.44 800.37 78.9C800.19 79.16 800.58 78.92 801.47 78.7Z" fill="#40798C"/>
<path d="M802.68 78.76C803.78 78.88 805.19 78.89 803.28 79.3C807 78.93 806.35 78.45 802.68 78.76Z" fill="#40798C"/>
<path d="M812.46 79.87H813.93L815.16 79.53C814.55 79.74 812.35 79.68 812.46 79.87Z" fill="#40798C"/>
<path d="M788.09 78.17C787.99 78.4 788.78 78.77 788.95 79.05L790.35 78.76C789.61 78.63 788.21 78.51 788.09 78.17Z" fill="#40798C"/>
<path d="M789 79.05C788.3 79.19 787.6 79.36 786.9 79.49C788.76 79.51 789.09 79.29 789 79.05Z" fill="#40798C"/>
<path d="M798.13 80.2L801.57 79.37L797.46 80.24L798.13 80.2Z" fill="#40798C"/>
<path d="M779.96 78.03L781.13 77.47L779.03 78.33L779.96 78.03Z" fill="#40798C"/>
<path d="M774.58 78.07C775.45 77.57 773.32 77.16 774.25 76.86C772.949 76.9344 771.668 77.2076 770.45 77.67C771.839 77.5045 773.248 77.641 774.58 78.07Z" fill="#40798C"/>
<path d="M768.58 78.23C769.215 78.0858 769.84 77.8987 770.45 77.67C769.802 77.7625 769.172 77.9513 768.58 78.23Z" fill="#40798C"/>
<path d="M783.2 79.38C782.73 78.9455 782.12 78.6936 781.48 78.67L782.36 79.37L783.2 79.38Z" fill="#40798C"/>
<path d="M783.42 79.38H783.2C783.29 79.44 783.34 79.47 783.42 79.38Z" fill="#40798C"/>
<path d="M792.49 79.94C791.26 80.31 788.68 80.84 791.25 81.22C792.12 80.76 790.64 80.53 792.49 79.94Z" fill="#40798C"/>
<path d="M784.51 80.22L786.79 80.34C786.73 80.17 786.31 79.92 786.92 79.74L784.51 80.22Z" fill="#40798C"/>
<path d="M783.41 80.45L784.51 80.22L783.67 80.18L783.41 80.45Z" fill="#40798C"/>
<path d="M772.48 79.09C771.423 79.3667 770.332 79.4879 769.24 79.45C770.539 79.6316 771.848 79.7351 773.16 79.76C773.33 79.52 773.87 79.09 772.48 79.09Z" fill="#40798C"/>
<path d="M777.3 79.32L777.09 79.37C777.22 79.43 777.33 79.45 777.3 79.32Z" fill="#40798C"/>
<path d="M757.36 79.16L757.55 79.34C757.55 79.28 757.55 79.24 757.55 79.18L757.36 79.16Z" fill="#40798C"/>
<path d="M773.38 79.91C774.092 80.0434 774.828 79.9453 775.48 79.63C774.71 79.7213 773.935 79.7647 773.16 79.76C773.08 79.87 773.07 79.94 773.38 79.91Z" fill="#40798C"/>
<path d="M765.28 78.51C765.835 78.7166 766.403 78.8869 766.98 79.02C766.48 78.75 765.46 78.3 765.28 78.51Z" fill="#40798C"/>
<path d="M776.75 79.16H776.89C776.57 79 776.61 79 776.75 79.16Z" fill="#40798C"/>
<path d="M776.75 79.16C776.311 79.2719 775.886 79.4294 775.48 79.63C776.021 79.5716 776.558 79.4848 777.09 79.37C776.969 79.3128 776.855 79.2424 776.75 79.16Z" fill="#40798C"/>
<path d="M753.79 85.06C753.96 84.17 756.52 83.4 758.79 84.29C760.97 83.66 759.49 80.98 757.58 79.29C757.52 79.65 757.52 79.99 755.29 80.43C756.07 80.93 760.29 81.63 758.39 82.35C755.39 82.75 755.95 82.02 754.5 81.53C755.74 82.62 750.72 83.07 751.37 84.72L753.98 84.13C754 84.43 753.06 84.84 753.79 85.06Z" fill="#40798C"/>
<path d="M761.81 79.55L762.73 79.46C761.602 79.2548 760.518 78.852 759.53 78.27C758.01 78.6 757.69 78.9 757.59 79.18C759.1 79.29 760.59 79.38 762.12 79.43L761.81 79.55Z" fill="#40798C"/>
<path d="M766.86 79.53C766.17 80.35 763.96 80.71 765.34 81.64C768.05 81.57 767.22 80.93 768.82 80.58C764.46 80.75 770.06 80.14 766.9 79.58C767.676 79.4782 768.457 79.4215 769.24 79.41C768.46 79.29 767.7 79.15 766.98 78.98H767.08C767.27 79.09 767.33 79.16 767.08 79.1H766.99C766.95 79.216 766.885 79.3218 766.8 79.41C765.53 79.21 766.59 79.19 766.99 79.1C766.99 79.1 766.99 79.02 766.99 78.97L762.64 79.36C764.04 79.5251 765.451 79.5819 766.86 79.53Z" fill="#40798C"/>
<path d="M789 82.74C788.86 82.74 788.86 82.65 788.85 82.61C788.59 82.71 788.48 82.77 789 82.74Z" fill="#40798C"/>
<path d="M787.19 82.48C787.677 82.2135 788.225 82.079 788.78 82.09C789.7 82.22 788.78 82.4 788.87 82.61C789.48 82.38 791.01 81.99 789.04 81.82L788.73 81.93C786.95 81.86 784.63 81.03 784.93 80.93C785.551 81.6174 786.325 82.1485 787.19 82.48Z" fill="#40798C"/>
<path d="M776.88 81.49C775.67 81.64 774.46 81.83 773.25 81.97C773.88 82.2 774.51 82.39 775.14 82.58L775.03 82.19C777.11 82.27 776.64 81.8 776.88 81.49Z" fill="#40798C"/>
<path d="M756.94 78.69L757.41 77.74L755.32 79.02L756.94 78.69Z" fill="#40798C"/>
<path d="M752.22 78.6L752.39 77.73L751.15 78.2L752.22 78.6Z" fill="#40798C"/>
<path d="M483.89 80.69L482.81 81.1C483.19 81.0236 483.555 80.885 483.89 80.69Z" fill="#40798C"/>
<path d="M491.65 80.94L491.85 80.17C491.49 80.59 491.34 80.9 491.65 80.94Z" fill="#40798C"/>
<path d="M636.23 68.71C634.77 67.22 633.17 64.95 633.23 66.6L633.59 68.24C634.498 68.062 635.439 68.2297 636.23 68.71Z" fill="#40798C"/>
<path d="M555.59 73.55L556.03 74.1L557.15 72.49L555.59 73.55Z" fill="#40798C"/>
<path d="M554.21 80.66L552.21 79.46C552.806 79.9677 553.482 80.3731 554.21 80.66Z" fill="#40798C"/>
<path d="M441.48 81.75L440.24 83.35C442.19 83.38 441.33 82.54 441.48 81.75Z" fill="#40798C"/>
<path d="M703.91 75.71C702.873 75.1846 701.765 74.814 700.62 74.61C702.19 75.52 703.43 76.74 703.91 75.71Z" fill="#40798C"/>
<path d="M487.15 62.73C486.48 63.04 486.2 63.38 486.21 63.73C486.89 63.47 487.28 63.15 487.15 62.73Z" fill="#40798C"/>
<path d="M696.75 74.24C696.971 74.3823 697.202 74.5092 697.44 74.62C698.493 74.4544 699.566 74.4544 700.62 74.62C700.074 74.2037 699.422 73.9477 698.739 73.8806C698.055 73.8135 697.367 73.9379 696.75 74.24Z" fill="#40798C"/>
<path d="M287.31 79.35C287.2 79.35 287.06 79.35 286.96 79.26C286.86 79.17 287.09 79.36 287.31 79.35Z" fill="#40798C"/>
<path d="M242.18 76.83L244.02 76.62C243.69 76.64 243.14 76.7 242.18 76.83Z" fill="#40798C"/>
<path d="M733.26 77.09C734.26 77.09 733.42 76.98 733.26 77.09V77.09Z" fill="#40798C"/>
<path d="M738 81.64C737.893 81.6812 737.798 81.7501 737.726 81.8396C737.654 81.9292 737.607 82.0363 737.59 82.15C737.618 82.0409 737.67 81.9391 737.74 81.8512C737.811 81.7633 737.9 81.6913 738 81.64Z" fill="#40798C"/>
<path d="M686.19 81.86H686.1C686.38 82.14 686.34 82.09 686.19 81.86Z" fill="#40798C"/>
<path d="M734.75 77.68C734.341 77.5053 733.915 77.3713 733.48 77.28C733.892 77.4464 734.317 77.5802 734.75 77.68Z" fill="#40798C"/>
<path d="M734.56 77.15L735.43 77.31C735.56 77.14 735.46 77 734.56 77.15Z" fill="#40798C"/>
<path d="M731.87 77.05C732.413 77.0779 732.951 77.1549 733.48 77.28C733.29 77.19 733.21 77.12 733.26 77.09C733 77.09 732.56 77.09 731.87 77.05Z" fill="#40798C"/>
<path d="M369.89 76.39C369.814 76.3557 369.74 76.3155 369.67 76.27C368.67 76.82 369.11 76.73 369.89 76.39Z" fill="#40798C"/>
<path d="M608.82 83.63C608.82 83.63 608.9 83.63 608.94 83.56L608.8 83.49L608.82 83.63Z" fill="#40798C"/>
<path d="M605.14 84.67C606.8 82.67 607.66 83 608.8 83.49L607.91 78.66L605.14 84.67Z" fill="#40798C"/>
<path d="M465.29 80.85L467.83 82.38C464.76 84.8 462.55 83.88 464.92 86.03C465.3 80.86 474.77 85.67 475.16 80.45L476.82 81.6C476.34 81.54 476.26 81.84 475.82 81.78C479.05 84.38 478.26 78.03 482.45 78.86C483.91 79.29 484.92 80.07 483.92 80.69L487.19 79.43C488.19 79.55 487.89 80.43 486.95 80.35L491.95 80.02V80.17C492.882 79.2002 493.904 78.3197 495 77.54C496.25 78.33 494.36 78.1 494.67 78.77L497.44 77.52C498.54 78.93 496.24 80.23 494.35 80C496.83 85.4 496.65 78.67 502.14 82L499.53 82.61C501.15 85.71 503.19 84.61 506.09 86.61C505.41 85.61 500.31 81.61 503.31 80.4C503.88 80.684 504.521 80.7974 505.154 80.7264C505.787 80.6555 506.387 80.4032 506.88 80C506.88 81.91 508.43 81.48 510.4 81.42L510.22 83.96C512.35 83.28 512.22 81.96 513.49 80.87C515.85 81.18 516.3 83.16 516.82 84.87C520.6 85.38 514.27 81.64 518.82 81.27C521.95 82.27 524.19 81.27 528 79.93C530.19 80.93 527.58 81.48 528.35 82.23L530.35 80.23C530.83 80.29 530.66 80.91 530.57 81.23C532.24 80.49 530.78 78.68 533.39 78.07C534.18 75.27 538.59 82.35 541.9 79.24C542.67 79.99 541.47 80.8 541.68 81.79C546.15 79.79 545.5 80.37 549.22 77.68L552.22 79.48C550.03 77.48 553.01 75.33 555.62 73.57C555.041 72.7999 554.417 72.0653 553.75 71.37L557.86 70.18C558.33 70.62 557.86 71.47 557.18 72.51C557.446 72.3297 557.703 72.1361 557.95 71.93C559.36 72.93 558.55 74.37 557.45 75.75C556.98 75.23 556.51 74.67 556.06 74.12C555 75.62 553.99 77.3 554.14 78.8C554.528 78.4716 554.998 78.254 555.5 78.17C555.22 78.58 555.04 78.95 555.15 79.17C555.26 79.39 555.72 78.89 556.41 78.27L557.21 81.14L557.48 80.03L562.69 82.03C566.59 79.34 570.08 75.22 576.16 74.4C574.56 76.4 575.67 77.75 575.47 80.19C573.96 77.51 570.77 81.06 567.68 80.43C569.29 80.77 568.88 81.92 568.45 82.31L574.11 80.19C573.89 82.19 575.22 81.74 576.62 82.64C575.72 78.64 580.89 80.21 583.21 79.11C583.28 80.44 582.67 81.76 579.93 81.31C582.82 84.41 584.1 76.89 586.93 79.54C586.26 79.54 585.93 79.32 585.61 79.98C587.24 78.89 591.03 79.98 590.07 81.1H589.39C592.23 81.4924 595.105 81.5561 597.96 81.29C600.96 81 603.41 80.22 603.85 78.61C603.6 80.1531 603.219 81.672 602.71 83.15C605.59 79.6433 608.48 76.1667 611.38 72.72C610.5 75.46 612.76 82.21 608.95 83.58C609.663 83.9451 610.449 84.1463 611.25 84.1688C612.051 84.1913 612.847 84.0345 613.58 83.71C612.88 83.28 612.04 79.6 613.05 79.41C615.56 82.64 614.82 81.17 618.05 83.96C617.05 83.32 618.51 79.08 620.22 79.32C619.9 79.95 620.06 83.57 619.4 83.98L623.98 80.05C622.86 80.73 623.53 83.59 624.4 84.83C624.02 83.98 628.09 85.12 629.26 84.83L627.52 83.75C632.3 84.68 632.73 78.24 637.52 78.83C636.87 79.62 635.68 83.93 638.08 84.6C639.36 82.6 643.81 74.94 648.17 73.77L648.89 75.01L652.25 74.01C648.7 78.1409 644.758 81.9185 640.48 85.29C642.22 86.29 640.88 86.72 643.59 86.78C644.47 87.94 641.99 88.37 641.18 88.39L647.44 89.45C647.34 87.04 652.44 87.34 652.37 85.36L645.37 87.36C645.28 84.93 649.86 80.83 654.3 81.59C655.36 82.59 653.12 85.72 653.15 86.52C653.8 85.74 657.52 85.24 657.89 85.83L655.89 86.97C658.32 87.97 660.2 84.14 663.02 86.53C664.02 86.74 665.89 89.64 666.17 88.3C664.68 85.62 664.98 77.5 666.25 75.64C666.59 75.86 671.46 78.64 672.55 79.94C674.1 82.05 669.64 84.54 670.95 86.36C671.06 85.75 672.06 85.05 672.47 84.84C673.52 85.43 671.88 86.7 674.26 86.56C674.82 84.34 679.05 87.04 675.52 84.73C677.87 84.24 677.94 85.34 680.66 85.4C679.9 83.91 683.44 80.7 685.79 80.27C685.61 80.81 686.08 81.57 686.31 81.91C691.02 82.45 693.5 83.55 697.91 83.81C698.28 84.34 700.38 85.06 699.42 85.9C700.176 85.295 701.103 84.945 702.07 84.9C704.6 86.79 699.01 85.02 700.9 87.25C701.14 86.06 704.52 85.79 706.5 85.13C706 83.32 702.04 84.55 700.05 85.2C700.2 82.63 703.73 80.2 708.38 79.4C712.06 79.04 709.88 81.08 710.53 80.78C712.717 81.1692 714.97 80.7 716.82 79.47C718.17 78.69 719.36 78.09 722.17 79.09C724.37 80.68 722.17 81.99 722.62 83.09C719.62 83.54 718.08 81.97 716.06 81.9L718.51 82.75C717.242 83.2827 715.83 83.3639 714.51 82.98C716.34 84.47 726.12 83.73 731.4 85.06C732.4 84.64 734 84.18 733.24 83.62L731.56 83.76C730.05 82.58 734.76 82.33 732.65 81.76C734.92 81.04 737.46 79.97 740.65 80.76L741.22 82.27C741.16 81.83 739.22 81.27 738.22 81.73C739.55 81.13 743.05 83.89 744.52 82.01L742.31 80.92C744.58 80.26 747.37 78.92 750.16 79.43C748.89 78 749.51 79.57 747.54 77.86C749.24 80.02 740.4 77.36 743.14 79.71C741.14 77.63 739.63 78.71 737.01 76.79C737.08 77.3 737.93 77.79 735.59 77.42C735.437 77.5837 735.262 77.725 735.07 77.84H734.91L735.04 77.91C734.94 77.98 734.93 78 735.04 77.91C735.497 78.0828 735.9 78.3724 736.21 78.75C735.03 79.86 731.29 79.65 730.01 80.18C728.63 79.85 730.61 79.61 729.87 79L727.95 79.83C727.8 78.65 724.33 77.59 727.62 77.14L724.68 76.86C722.963 75.997 721.019 75.6928 719.12 75.99C717.74 75.6 715.55 77.08 716.8 76.2L712.15 76.59V76.27C707.62 75.7 702.64 77.72 697.58 74.76C695.686 75.1228 693.736 75.0784 691.86 74.63L691.45 73.36C689.45 73.59 685.61 71.51 684.68 72.71C682.8 69.13 675.18 70.98 671.75 69.99L671.49 71.67C668.912 71.4096 666.309 71.514 663.76 71.98L663.82 73.53C661.16 74.53 657.31 71.79 653.25 71.53C653.57 70.96 654.59 71.21 655.25 71.65C650.69 67.59 644.81 73.28 640.62 70.23C640.196 70.4382 639.723 70.5241 639.253 70.4782C638.783 70.4322 638.335 70.2563 637.96 69.97C638.057 69.9704 638.152 69.95 638.24 69.91C638.092 69.8772 637.941 69.8538 637.79 69.84C637.32 69.52 636.85 69.15 636.33 68.84C636.683 69.2344 637.094 69.5717 637.55 69.84C636.393 69.7944 635.236 69.9088 634.11 70.18L633.7 68.37C633.6 68.37 633.52 68.37 633.41 68.37C632.22 67.6 632.35 69.12 632.91 70.5C632.28 70.712 631.688 71.0262 631.16 71.43C630.37 68.43 627.79 72.11 626.64 68.92C625.64 70.34 620.22 69.5 619.32 72.67C619.32 72.25 618.95 72.02 619.63 72.04C618.25 71.58 616.87 71.11 615.55 71.93L615.11 69.57L611.83 72.46C610.06 70.92 609.34 70.02 611.31 68.37C606.65 70.8 607.61 69.14 603.63 71.62L603.91 70.11C602.55 70.11 600.25 71.97 599.51 70.65C596.63 67.49 584.51 69.35 576.79 66.14C578.08 70.83 573.25 63.86 572.79 67.42C572.39 66.31 571.33 65.64 572.64 64.75C568.64 65.64 566.71 62.75 563.82 65.64C563.41 64.52 564.74 64.07 564.36 63.4C564.03 63.63 563.05 64.3 562.66 63.62C562.27 62.94 563.29 62.73 563.94 62.29C559.85 62.29 559.3 65.64 558.87 68.8C556.87 67.21 555.87 67.37 554.25 69.39C553.58 68.32 552.42 67.19 554.96 66.92C553.55 66.7 546.31 65.02 546.07 67.59C545.65 66.93 544.07 67.34 543.7 67.59C541.511 67.2802 539.299 67.1631 537.09 67.24L537.95 67.69C536.61 70.69 535.32 68.3 532.77 68.59L532.85 68.28C527.11 65.88 530.32 69.28 524.66 66.56L524.92 68.48C524.29 72.57 519.92 65.94 516.55 67.48L517.72 68.6C515.88 69.97 512.72 62.92 510.95 62.38C510.56 62.02 511.6 61.82 512.16 61.57C507.42 59.07 511.49 64.05 507.91 64.57C507.28 63.22 508.83 61.16 506.43 60.88C505.25 59.79 499.43 65.09 496.17 62.54C496.88 63.54 497.58 64.6 495.91 65.37C493.38 65.71 489.11 61.46 486.78 64.67C486.653 64.5756 486.548 64.4556 486.47 64.3178C486.393 64.1799 486.345 64.0274 486.33 63.87C484.33 64.69 480.02 65.22 478.84 66.95C477.09 60.51 466.79 70.05 466.84 64.18L460.84 64.54L461 63.95C457.19 63.6 455.84 64.95 454.51 66.38C453.63 65.99 454.27 65.45 454.34 65.15C448.78 64.02 448.22 64.33 443.57 67.21L443 65.28C441.74 66.35 434.94 62.58 429.5 64.81C429.535 64.6407 429.605 64.4808 429.707 64.3411C429.809 64.2013 429.94 64.085 430.09 64C427.03 65.1 423.34 64 420.15 63.41C416.96 62.82 414.25 62.83 413.15 65.98L409.15 67.62C414.39 67.97 408.41 70.32 410.58 71.3C408.53 71.68 405.24 69.53 407.76 69.17L408.16 69.47C409.04 66.24 401.64 68.47 401.74 66.34C391.44 66.86 381.37 65.58 371.74 66.01L372.91 68.15H369.54C368.64 67.69 368.31 66.51 370.71 66.47C369.42 65.31 366.71 67.72 366.66 68.18C361.94 67.55 368.43 65.58 366.98 65.6L364.98 65.87L365.43 66.1C363.87 67.1 363.75 67.98 360.87 68.02C359.03 67.7 359.87 66.79 359.17 66.75C359.17 66.6 358.93 66.54 358.07 66.75L353.83 66.82L355.57 68.33C353.71 69.22 351.57 68.44 353.57 70.16C352.1 68.81 348.14 68.81 344.33 69.02C340.52 69.23 336.85 69.66 335.96 69.33C333.37 70.53 330.77 70.63 327.55 70.7C328.36 70.93 328.9 72.45 326.12 72.39C327.02 69.22 321 71.33 318.67 69.39C320.73 70.65 310.81 70.32 314.03 72.02C311.71 71.93 313.85 70.96 312.03 70.43C309.076 71.0745 306.051 71.3366 303.03 71.21C299.69 71.1378 296.35 71.2881 293.03 71.66C292.94 71.97 294.1 72.34 292.66 72.9C291.44 72.49 290.22 72.1 289.01 71.74C287.67 72.01 287.84 73.45 285.35 72.74C285.71 72.94 286.24 73.25 285.35 73.4C278.67 73.25 271.89 74.18 265.07 74.85C258.25 75.52 251.56 76 244.8 76.34C246.63 76.34 245.42 76.46 244.02 76.62C244.93 76.56 244.02 76.83 244.2 76.92C242.31 76.99 240.42 77.08 238.53 77.23C237.53 77.52 232.53 77.91 231.9 78.05L233.68 77.86C232.5 78.03 233.33 77.99 234.42 78.01C235.51 78.03 236.87 78.11 236.7 78.24C238.391 78.1233 240.089 78.1233 241.78 78.24C243.902 78.4249 246.037 78.3813 248.15 78.11C249.15 78.22 247.33 78.3 247.85 78.42C249.481 78.1378 251.14 78.0606 252.79 78.19L252.51 78.27C259.51 78.15 262.51 78.47 270.4 78.83L269.79 78.28C270.755 78.2994 271.715 78.4303 272.65 78.67C274.54 77.77 267.9 78.67 269.65 77.67C270.8 78.2 273.78 78.21 276.65 78.2C279.52 78.19 282.34 78.2 283.13 79.06C285.73 79.06 282.33 78.25 284.93 78.25L285.64 78.7L286.27 78.11C287.98 78.2 288.86 78.79 288.95 79.2C288.407 79.1997 287.866 79.2432 287.33 79.33C289.57 79.92 293.55 79.19 294.33 79.38L291.82 79.05C295.36 78.84 299.29 78.88 303.2 78.85C306.939 78.9461 310.678 78.695 314.37 78.1L313.83 77.64C319.02 76.64 318.04 78.13 323.76 77.64L323.56 77.76C324.895 77.2045 326.335 76.9452 327.78 77C326.35 77.62 330.55 78.19 328.68 78.88C334.3 77.81 331.45 78.06 335.12 75.97L336.01 76.88C337.26 76.03 337.35 75.58 340.21 75.27C337.89 76.12 342.09 76.69 339.49 77.8C341.783 78.5565 344.255 78.5775 346.56 77.86C348.37 77.43 349.78 77.1 351.21 78.71C353.88 75.88 345.95 77.22 347.48 76.61C346.16 75.75 349.7 74.51 351.59 74.74C353.51 74.74 354.97 78.31 359.79 78.27C359.31 78.27 359.29 78.47 358.79 78.46C360.62 79.21 362.3 77.46 364.55 78.67C365.74 76.85 367.43 78.76 367.73 76.43L363.3 77C365.8 76.4 368.08 73.6 372.3 74.86C371.631 75.5222 370.826 76.0307 369.94 76.35C371.17 77.04 372.26 75.86 373.53 76.57C373.23 78.96 368.16 77.14 365.53 78.92C366.85 79.92 370.53 77.22 369.29 79.76C371.15 76.51 374.05 80.19 377.29 77.66L377 79.16C377.763 78.6812 378.625 78.3804 379.52 78.28L377.84 80.17C380.45 78.56 382.98 81.65 385.49 80.79C380.18 80.79 384.26 78.97 381.99 77.88C388.5 75.88 385.85 81.82 393.16 81.17C392.16 81.38 389.42 80.17 390.96 79.52C392.451 79.7857 393.862 80.3839 395.09 81.27C399.94 80.98 394.31 79.66 396.36 78.71C398.05 80.62 398.73 77.94 400.85 77.31V78.92C406.4 80.01 402.26 75.56 407.27 76.82L405.2 79.08L407.79 78.51L407.28 80.37C410.09 79.01 410.97 79.37 413.75 79.92C413.09 78.74 414.07 76.92 416.52 76.84C418.21 77.84 415.61 78.44 419.08 78.21C418.31 79.26 417.47 80.57 415.93 79.02C415.79 79.57 415.17 80.02 415.02 80.6C416.84 81.77 419.55 80.92 420.81 80.9C420.329 80.8729 419.86 80.7361 419.44 80.5L424.44 78.15C425.24 78.8 424.61 79.32 423.99 79.82C424.99 79.64 425.71 78.82 427.21 78.72C426.84 80.12 426.94 81.56 424.83 82.19L429.61 80.71C429.94 81.32 432.09 82.44 431.47 82.94C434.13 83.85 437.97 80.28 441.47 81.43C441.797 81.0307 442.26 80.7669 442.77 80.69C446.09 81.05 449.02 82.88 452.95 80.94L455.18 83.62C458.25 83.07 452.18 80.24 457.28 79.32C460.91 78.52 458.63 81.61 459.9 82.37C461.7 81.06 464.9 78.37 468.17 80.58C467.19 81.08 466.33 80.67 465.29 80.85ZM503.23 80.34C502.49 80.72 501 81.92 500.48 80.78C501.36 78.62 502 79.68 503.23 80.34ZM561.03 77.47C560.46 78.08 559.63 77.74 558.7 76.97C559.502 76.8364 560.326 77.0153 561 77.47H561.03ZM722.27 77.32L722.19 77.38C720.58 76.75 721.15 77 722.27 77.32ZM725.64 78.12C725.98 77.97 725.96 77.78 725.83 77.59C725.58 77.9 724.83 77.87 723.96 77.72C724.18 78.08 724.61 78.34 725.64 78.12ZM358.85 67.3L359.52 67.62C358 68.1 358.44 67.72 358.85 67.3Z" fill="#54949F"/>
<path d="M554.39 79.84C554.218 79.5122 554.122 79.1499 554.11 78.78C553.81 79.09 553.79 79.47 554.39 79.84Z" fill="#40798C"/>
<path d="M441.71 81.45H441.59C441.534 81.5491 441.497 81.6576 441.48 81.77L441.71 81.45Z" fill="#40798C"/>
<path d="M672.13 87.22C671.618 87.0489 671.166 86.7328 670.83 86.31C670.77 86.7 671.06 87.06 672.13 87.22Z" fill="#40798C"/>
<path d="M743.61 77.22L741.44 77.38C742.138 77.3749 742.826 77.5469 743.44 77.88C743.34 77.61 742.93 77.19 743.61 77.22Z" fill="#40798C"/>
<path d="M762.52 84.25C762.84 84.12 763.2 84.25 763.52 84.08L763.42 83.63C762.06 83.69 761.11 84.09 762.52 84.25Z" fill="#40798C"/>
<path d="M745.58 81.12C745.75 82.12 747.12 81.79 748.64 81.64C748.55 81.65 748.46 81.65 748.37 81.64C748.83 80.34 747.2 80.74 745.58 81.12Z" fill="#40798C"/>
<path d="M749 81.61C749.469 81.57 749.941 81.57 750.41 81.61C750.59 81.1 749.84 81.49 749 81.61Z" fill="#40798C"/>
<path d="M730 77.71C730.72 78.03 730.49 76.4 730.89 76.86C731.68 75.57 726 78.13 730 77.71Z" fill="#40798C"/>
<path d="M746.8 84.27L746.26 83.1L745.39 84.03C745.86 84.11 746.33 84.2 746.8 84.27Z" fill="#40798C"/>
<path d="M734.72 83.14L737.16 83.54C737.16 83.33 737.44 83.22 737.82 83.13C736.31 83.05 734.67 82.76 734.72 83.14Z" fill="#40798C"/>
<path d="M737.82 83.13C738.49 83.2085 739.169 83.1576 739.82 82.98C739.15 82.9659 738.48 83.0161 737.82 83.13Z" fill="#40798C"/>
<path d="M743.44 84.58L742.72 84.32L741 84.2L743.44 84.58Z" fill="#40798C"/>
<path d="M708.46 81.67L705.78 81.94C705.48 82.43 706.19 82.78 707.19 82.63C707.85 82.32 708.85 82.18 708.46 81.67Z" fill="#40798C"/>
<path d="M716.35 86C715.64 85.68 715.61 85.37 715.22 84.88L715.06 86.63L716.35 86Z" fill="#40798C"/>
<path d="M708.52 86.1C708.23 86.58 704.52 87.41 707.96 87.41C708.26 86.92 711 86.59 708.52 86.1Z" fill="#40798C"/>
<path d="M668.43 81.25L669.11 81.28L669.28 77.84L668.43 81.25Z" fill="#40798C"/>
<path d="M632.36 87.51C635.44 88.57 633.28 85.25 636.05 86.51C636.86 85.68 633.79 85.51 634.61 84.75C632.63 85.58 631.67 85 632.36 87.51Z" fill="#40798C"/>
<path d="M634.61 84.77C634.956 84.6294 635.29 84.4622 635.61 84.27C635.248 84.3725 634.909 84.5421 634.61 84.77Z" fill="#40798C"/>
<path d="M234.75 77.55L232.72 77.8L234.03 77.67L234.75 77.55Z" fill="#40798C"/>
<path d="M230.86 78.12H230.39C229.98 78.19 229.58 78.24 229.17 78.29L230.86 78.12Z" fill="#40798C"/>
<path d="M508.76 85.67L508.93 85.05C508.63 84.37 508.16 84.31 507.21 84.18L508.76 85.67Z" fill="#40798C"/>
<path d="M481.31 83.11L481.78 83.17L480.92 80.87L481.31 83.11Z" fill="#40798C"/>
<path d="M458.23 85.5C459.17 85.61 460.23 85.14 461.23 85.26C459.17 85.61 458 82.73 458.23 85.5Z" fill="#40798C"/>
<path d="M1025.66 515.9C1025.66 515.9 1019.12 516.24 1014.5 516.74C1009.88 517.24 1006.95 515.25 1002.67 513.83C998.39 512.41 996.84 509.93 993.45 507.08C990.06 504.23 989.85 501.85 990.55 500.53C991.25 499.21 994.91 497.85 997.16 495.94C999.41 494.03 1000.65 493.29 1006.41 494.58C1012.17 495.87 1018.79 490.79 1018.79 490.79C1018.79 490.79 1011.53 491.63 1006.89 488.95C1011.21 489.7 1011.89 486.95 1015.83 485.33C1019.77 483.71 1021.83 477.33 1021.83 477.33C1021.83 477.33 1010.28 478.41 1005.2 476.63C1000.12 474.85 997.26 473.28 987.93 464.27C1005.99 468.77 1013.51 458.09 1013.51 458.09C1013.51 458.09 1008.22 461.19 998.68 457.71C1003.18 456.23 1008.19 451.77 1008.19 451.77C1008.19 451.77 999.28 451.32 993.63 449.59C987.98 447.86 977.28 440.59 975.76 438.26C974.24 435.93 971.63 427.86 968.96 420.03C982.9 434.34 992.96 425.64 992.96 425.64C992.96 425.64 986.18 425.19 982.96 421.64C987.66 422.96 987.82 415.38 989.81 414.47C991.8 413.56 991.97 411.92 990.19 410.06C988.41 408.2 987.12 410.2 986.04 410.79C984.96 411.38 984.42 412 982.26 406.67C980.1 401.34 975.6 397.79 972.93 395.34C970.26 392.89 968.93 386.65 966.56 382.27C964.19 377.89 962.47 378.4 962.03 378.22C961.59 378.04 961.38 377.22 961.87 375.57C966.79 377.51 970.38 372.32 973.31 368.79C976.24 365.26 976.14 356.96 976.14 356.96C976.14 356.96 972.77 363.19 970.05 362.96C969.61 349.79 964.71 343.6 962.85 339.46C960.99 335.32 962.52 322.01 961.98 314.82C961.44 307.63 958.15 304.1 958.15 297.53C958.15 290.96 956.86 283.64 955.74 284.19C951.9 286.06 953.51 307.13 953.32 317.14C948.4 326.45 951.12 339.65 950.69 349.48C950.43 355.43 943.31 363.97 943.31 363.97L950.25 360.88C949.59 366.53 952.25 374.47 952.25 374.47C952.25 374.47 948.51 377.87 947.85 382.38C937.998 377.825 927.766 374.145 917.27 371.38C914.686 370.766 912.258 369.621 910.142 368.016C908.026 366.411 906.268 364.383 904.98 362.06C914.8 365.74 927.87 370.31 938.14 366.31C938.14 366.31 924.07 360.72 924.29 360.31C924.51 359.9 928.51 357.91 931.72 357.96C934.93 358.01 938.48 360.35 940.35 357.81C942.22 355.27 948.35 346.98 945.21 343.55C942.07 340.12 938.15 346.61 934.38 344.37C930.61 342.13 930.31 340.86 919.17 335.17C933.54 338.08 937.37 327.38 934.83 324.41C932.29 321.44 928.51 325.34 924.29 323.74C920.07 322.14 916.06 323.99 906.55 319.25C897.04 314.51 889.82 300.67 889.82 300.67C889.82 300.67 903.75 305.76 906.66 306.12C909.57 306.48 909.36 304.33 917.39 304.12C925.42 303.91 938 288.92 938 288.92C938 288.92 932.72 292.52 920.78 290.86C928.78 284.58 932.94 275.86 934.78 272.86C936.236 270.122 937.457 267.265 938.43 264.32C938.43 264.32 922.3 276.26 917.7 277.13C913.1 278 898.49 272.87 894.19 272.3C889.89 271.73 885.49 269.75 879.39 262.67C890.66 263.31 893.09 260.67 893.09 258.67C893.09 256.67 890.64 253.67 890.64 253.67C896.79 252.502 902.669 250.203 907.98 246.89C916.21 241.57 918.62 228.21 918.62 228.21C918.62 228.21 915.62 233.66 912.93 235.48C910.24 237.3 901.93 238.86 898.74 238.77C895.55 238.68 893.43 238.19 890.05 234.2C886.67 230.21 881.85 229.11 880.05 228.2C878.25 227.29 875.72 222.34 878.35 221.11C880.98 219.88 881.76 225.47 890.71 223.35C900.3 221.07 903.86 208.93 907.46 200.64C906.28 201.78 902.34 206.11 899.22 206.79C896.1 207.47 886.48 206.79 886.48 206.79C886.48 206.79 884.37 203.08 880.98 201.79C884.71 201.03 889.36 195.45 893.24 188.79C890.303 191.095 886.847 192.648 883.173 193.312C879.499 193.976 875.718 193.732 872.16 192.6C872 188.08 870.03 187.79 869.44 186.95C868.85 186.11 869.27 181.25 871.44 175.04C873.61 168.83 869.74 163.86 870.44 159.35C871.14 154.84 870.35 147.12 869.67 142.42C868.99 137.72 864.57 136.08 864.06 132.04C863.55 128 864.74 123.25 862.44 122.58C860.14 121.91 859.28 132.17 860.31 136.19C861.34 140.21 861.42 151.14 859.88 157.34C858.34 163.54 858.69 168.4 860.22 172.71C861.75 177.02 860.82 181.91 860.82 184.05C860.718 185.188 860.317 186.279 859.659 187.213C859 188.147 858.107 188.891 857.07 189.37C855.07 190.24 848.18 192.15 848.95 198.06C849.72 203.97 852.21 204.06 862.44 210.06C861.67 212.63 857.75 213.97 850.92 215.13C844.09 216.29 839.19 221.82 839.19 221.82C839.19 221.82 833.61 218.64 833.27 223.41C832.93 228.18 836.79 229.68 842.96 230.68C846.234 231.166 849.466 231.898 852.63 232.87C851.436 234.95 849.71 236.676 847.63 237.87C845.026 239.644 841.951 240.602 838.8 240.62C836.06 240.81 833.8 247.62 838.55 250.54C843.3 253.46 846.55 250.02 853.1 252.13C859.65 254.24 859.67 249.18 860.44 250.05C861.21 250.92 861.72 256.89 858.99 260.86C856.26 264.83 847.63 270.33 845.23 270.27C842.83 270.21 834.61 276.69 826.35 284.72C837.35 288.94 840.18 282.42 844.8 285.2C849.42 287.98 858.05 284.93 858.05 284.93C858.05 284.93 842.49 292.54 843.05 297.02C843.61 301.5 859.05 302.02 859.05 302.02C859.05 302.02 850.17 310.93 843.92 315.02C837.67 319.11 830.19 318.11 830.19 318.11C830.19 318.11 838.61 312.11 840.19 310.87C841.77 309.63 841.9 305.26 839.33 303.66C836.76 302.06 826.33 300.66 820.86 298.19C815.39 295.72 808.53 289.19 808.53 289.19C808.53 289.19 813.27 286.6 813.53 285.03C813.79 283.46 813.62 275.84 811.2 273.91C808.78 271.98 806.69 274.59 803.6 273.41C795.33 270.28 789.1 262.13 782.6 254.88C790.6 259.82 802.04 263.88 810.72 263.1C816.27 262.62 821.25 263.1 828.3 259.61C823.91 260.69 814.87 259.34 808.74 253.54C818.49 250.02 818.49 243.89 817.36 241.54C816.23 239.19 813.92 239.76 811.36 239.41C808.8 239.06 806.96 239.82 801.51 236.48C797.8 234.245 793.956 232.241 790 230.48C790 230.48 803 229.1 807.21 226.21C811.42 223.32 815.5 219.74 813.95 213.79C813.95 213.79 821.19 213.34 825.06 210.04C813.146 209.059 801.351 206.96 789.83 203.77C780.2 201.06 775.6 200.26 773.08 197.11C771.083 194.773 768.87 192.631 766.47 190.71C766.47 190.71 765.78 185.22 767.26 184.71C768.74 184.2 774.73 188.39 782.02 190.07C789.31 191.75 798.31 190.18 798.31 190.18C798.31 190.18 791.31 188.26 787.66 185.98C784.01 183.7 780.46 178.1 780.46 178.1C782.847 179.74 785.405 181.115 788.09 182.2C791.73 183.52 794.94 181 800.09 178.29C805.24 175.58 805.97 170.56 803.63 165C806.14 163.09 808.73 155.3 808.73 155.3C808.73 155.3 802.68 162.16 798.1 162.5C793.52 162.84 790.1 162.96 786.51 160.91C782.92 158.86 780.07 159.18 776.6 158.42C773.13 157.66 768.96 153.98 763.39 144.77C765.74 148.11 771.82 148.2 775.04 146.77C778.26 145.34 785.19 139.77 786.23 137.08C787.27 134.39 785.23 131.42 783.65 130.49C782.07 129.56 781.55 131.06 778.42 132.3C775.29 133.54 773.13 133.44 772.78 132.3C772.43 131.16 774.17 130.2 776.86 129.85C779.55 129.5 781.86 126.17 783.2 121.4C784.54 116.63 782.42 110.75 781.55 109.19C780.68 107.63 778.55 106.39 776.77 109.26C774.99 112.13 771.48 114.91 769.13 115.1C766.78 115.29 764.13 113.39 757.65 110.01C761.3 109.86 765.65 104.26 765.65 104.26C765.65 104.26 755.91 103.67 755.3 103.26C754.69 102.85 753.21 98.35 754.16 97.26C755.11 96.17 759.04 86.64 760.69 84.26C762.34 81.88 762.35 78.15 761.82 77.4C761.29 76.65 756.82 85.32 756.25 84.69C755.68 84.06 755.38 76.8 755.25 71.75C755.053 67.0223 754.352 62.3291 753.16 57.75C752.11 53.15 751.94 46.05 751.68 39.35C751.42 32.65 749.41 20.7 749.41 20.7C749.41 20.7 747.67 40.5 746.53 45.85C745.39 51.2 745.75 58.12 745.75 65.52C745.75 72.92 743.48 79.52 743.05 85.88C742.62 92.24 744.83 101.02 744.83 101.02C744.83 101.02 736.94 103.75 733.01 103.35C729.08 102.95 721.01 99.09 721.01 99.09C721.01 99.09 725.6 105.63 730.71 107.67C725.9 109.67 718.71 106.14 718.71 106.14C718.71 106.14 719.32 110.55 726.57 116.14C733.82 121.73 735.82 119.69 736.96 121.52C738.1 123.35 750.82 138.17 750.39 140.44C749.96 142.71 743.76 147.83 740.39 148.12C737.02 148.41 726.87 147.38 715.39 140.48C720.9 151.55 733.12 154.84 733.12 154.84C733.12 154.84 720.98 154.03 716.53 150.84C714.19 149.051 711.44 147.876 708.53 147.42C708.53 147.42 711.94 156.78 716.31 158.84C719.985 160.399 723.449 162.415 726.62 164.84C731.62 168.4 740.62 168.03 740.62 168.03C733.36 173.8 724.95 178.65 715.57 179.66C718.27 185.56 723.08 187.28 732.25 188.13C741.42 188.98 752.25 185.62 752.25 185.62C750.069 189.93 746.941 193.691 743.1 196.62C736.91 201.19 734.56 199.87 731.76 198.89C728.96 197.91 726.44 197.51 723.29 199.99C720.273 202.523 716.389 203.781 712.46 203.5C708.09 203.26 705.2 202.5 702.67 199.5C700.14 196.5 695.59 195.61 695.59 195.61C695.59 195.02 695.64 194.72 695.67 194.13C695.67 194.13 697.16 195.39 703.19 195.32C709.22 195.25 710.54 188.23 710.54 188.23C709.939 188.776 709.235 189.197 708.469 189.466C707.703 189.736 706.891 189.849 706.08 189.8C705.99 185.28 702.08 182.88 699.26 176.53C696.44 170.18 698.91 170.35 696.2 163.91C693.49 157.47 694.36 155.5 694.2 148.5C694.04 141.5 692.53 140.35 692.01 135.95C691.49 131.55 692.01 119.45 692.01 119.45C692.01 119.45 687.01 131.62 687.01 136.98C687.01 142.34 687.36 153.34 686.4 157.43C685.44 161.52 680.63 169.01 680.63 169.01C680.204 165.209 680.057 161.382 680.19 157.56C675.9 164.84 679.32 175.82 679.32 175.82C677.395 172.593 675.978 169.089 675.12 165.43C673.98 180.43 683.78 188.18 683.78 188.18C682.032 189.705 680.088 190.99 678 192C674.42 193.74 674.94 197.92 674.94 197.92C674.94 197.92 673.28 195.22 670.13 190.51C671.92 200.78 674.59 205.51 683.78 210.51C681.33 210.01 677.92 214.14 674.15 213.38C670.38 212.62 663.83 207.22 662.52 206.38C661.21 205.54 658.32 204.78 660.07 210.38C661.82 215.98 667.24 221.8 667.24 221.8C667.24 221.8 662.74 218.74 660.77 218.13C665.43 226.42 675.62 232.61 679.84 238.39C680.76 239.65 680.72 248.53 678.97 252.39C677.22 256.25 660.42 265.46 656.83 264.63C653.24 263.8 642.76 253.22 642.76 253.22C642.76 253.22 648.96 254.22 657.76 254.84C666.56 255.46 670.4 250 670.4 250C670.4 250 665.4 249.71 663.64 248.77C669.99 245.34 672.74 240.61 671.34 239.69C669.94 238.77 658.51 238.02 652.56 235.96C646.61 233.9 638.92 225.43 638.92 225.43C638.92 225.43 650.11 220.18 650.58 216.49C653.78 216.85 656.12 211.82 655.71 210.17C655.3 208.52 652.91 206.75 651.22 208.12C649.53 209.49 647.78 208.5 645.33 207.72C642.88 206.94 639.62 202.93 639.91 202.06C640.2 201.19 643.18 202.86 645.04 202.66C646.9 202.46 646.73 199.57 649.12 200.05C651.51 200.53 652.73 200.28 655.12 198.41C656.75 199.41 658.9 200.32 659.72 198.2C660.54 196.08 659.31 193.47 659.31 193.47C659.31 193.47 662.81 190.03 662.4 186.31C665.2 185.31 666.95 184.23 668.76 179.81C666.6 181.94 662.11 183.46 657.91 182.62C653.71 181.78 651.03 182.44 648.47 181.92C645.91 181.4 637.86 181.15 638.16 179.71C638.46 178.27 641.24 176.25 645.16 175.84C649.08 175.43 652.24 173.41 652.82 171.38C653.4 169.35 651.71 165.77 650.11 166.38C648.8 166.963 647.314 167.01 645.97 166.51C644.63 166.06 643.2 163.13 640.9 162.95C638.6 162.77 637 161.49 637.17 160.6C637.34 159.71 637.96 160.22 641.54 158.12C645.12 156.02 645.74 150.43 645.74 150.43C645.74 150.43 643.9 152.34 642.5 152.2C641.95 150.73 639.42 150.33 638.19 150.09C636.96 149.85 634.58 148.09 634.46 146.91C634.34 145.73 636.46 145.55 637.84 144.62C639.22 143.69 641.6 141.99 641.13 139.82C640.66 137.65 638.13 136.82 637.26 135.97C636.39 135.12 634.26 132.97 634.26 131.34C634.26 129.71 634.9 127.75 635.02 124.27C635.294 120.768 634.956 117.246 634.02 113.86C632.91 110.5 633.44 102.17 633.44 102.17C632.334 105.278 631.799 108.561 631.86 111.86C631.98 117.31 631.11 130.06 629.59 131.12C628.07 132.18 625.28 133.55 624.99 137.06C624.7 140.57 628.99 143.63 628.99 143.63C628.99 143.63 623.93 143.41 622.53 146.49C621.13 149.57 625.27 156.75 625.27 156.75C625.27 156.75 623.27 156.34 620.67 155.62C618.07 154.9 614.39 151.88 614.39 151.88C614.39 151.88 613.92 154.14 618.22 157.64C615.55 157.18 614.97 160.39 614.97 160.39C612.338 157.714 610.025 154.74 608.08 151.53C610.58 161.65 617.84 169.53 626.84 174.53C626.002 175.299 624.961 175.809 623.84 176C622.09 176.22 619.53 175.5 615.84 174.77C615.132 174.609 614.398 174.604 613.688 174.756C612.978 174.907 612.31 175.211 611.729 175.647C611.149 176.083 610.67 176.64 610.327 177.279C609.983 177.919 609.783 178.625 609.74 179.35C609.74 181.51 611.48 185.76 616.02 185.8C615.78 187.61 619.02 189.6 623.02 192.91C618.59 191.32 611.15 191.49 608.59 191.91C606.03 192.33 600.75 189.91 600.75 189.91C601.51 194.11 601.9 196.22 602.66 200.42C602.66 200.42 605.98 201.36 606.91 203.75C607.84 206.14 611.44 206.75 611.44 206.75C610.431 207.448 609.273 207.902 608.058 208.076C606.843 208.249 605.604 208.138 604.44 207.75C607.31 213.67 621.88 211.51 621.88 213.11C621.88 214.71 614.11 219.11 610.54 219.87C608.28 220.38 605.47 219.58 603.7 218.92C604.16 216.33 604.19 213.92 603.3 213.32C601.44 212.02 597.44 212.89 594.36 213.94C591.28 214.99 585.78 212.43 585.78 212.43C585.78 212.43 590.42 211.89 591.35 209.43C587.46 207.82 583.92 200.86 582.24 200.26C580.56 199.66 577.73 201.83 575.76 201.1C573.79 200.37 573.91 198.47 573.15 196.1C572.39 193.73 573.79 192.65 573.15 189.32C572.51 185.99 569.39 182.83 568.58 180.68C567.77 178.53 567.58 172.42 567.58 168.56C567.58 164.7 568.74 151.49 566.49 151.14C564.24 150.79 565.27 155.49 565.1 161.03C564.93 166.57 563.89 167.23 563.25 170.76C562.61 174.29 564.35 172.67 563.71 177.06C563.237 181.315 561.62 185.361 559.03 188.77C556.84 188.44 555.28 191.58 553.61 192.71C551.94 193.84 551.19 195.77 552.46 196.57C553.73 197.37 554.71 199.12 554.13 199.66C553.951 199.91 553.836 200.201 553.797 200.506C553.757 200.811 553.793 201.121 553.902 201.409C554.011 201.697 554.189 201.954 554.42 202.156C554.652 202.359 554.93 202.501 555.23 202.57C556.96 203.17 558.17 207.57 557.53 208.92C556.89 210.27 549.86 207.82 546.87 207.71C543.88 207.6 542.15 209.52 540.37 208.49C538.59 207.46 536.28 204.7 535.25 206.17C534.22 207.64 535.48 209.63 535.82 211.17C536.16 212.71 537.49 214.17 537.49 216.68C531.34 214.68 525.44 217.82 523.89 217.63C522.34 217.44 520.39 216.75 519.82 217.63C519.25 218.51 518.45 219.11 516.5 217.79C514.55 216.47 511.3 216.58 511.3 216.58C511.3 216.58 513.81 212.77 516.62 207.95C519.43 203.13 517.36 200.5 517.7 198.95C518.04 197.4 523.83 194.69 524.23 188.61C522.4 188.61 517.93 192.7 517.93 192.7C517.93 192.7 519.13 188.9 519.99 186.47C520.85 184.04 520.39 179.04 519.94 178.32C519.49 177.6 517.87 176.83 519.48 175.46C521.09 174.09 521.6 169.6 521.6 169.6C521.6 169.6 508.5 182.3 507.7 181.88C506.9 181.46 506.22 177.79 506.22 177.79C507.589 177.899 508.964 177.882 510.33 177.74C511.87 177.49 513.33 173.09 513.33 171.52C513.33 169.95 510.64 170.22 510.24 169.59C509.84 168.96 510.87 168.83 511.84 167.85C512.81 166.87 512.01 162.44 509.39 160.95C506.77 159.46 502.31 156.53 501.63 154.35C500.95 152.17 501.63 148.35 501.63 148.35C504.766 149.509 507.679 151.2 510.24 153.35C514.3 156.79 522.13 162.15 532.69 157.69C527.75 158.33 519.5 155.16 516.36 150.28C519.27 151.41 523.74 148.44 524.83 142.06C525.92 135.68 523.63 135.42 522.02 136.06C520.41 136.7 517.1 136.17 515.79 134.17C514.48 132.17 510.93 131.17 510.3 129.41C509.67 127.65 507.16 124.97 506.02 123.41C504.88 121.85 503.62 120.17 504.48 115.88C510.48 121.19 516.19 118.43 516.19 118.43C514.725 116.698 512.939 115.265 510.93 114.21C512.81 114.51 521.62 107.05 520.36 102.55C519.1 98.05 510.81 97.61 508.76 98.28C506.71 98.95 502.97 97.57 501.34 96.35C499.71 95.13 500.57 94.41 500.49 92.89C500.41 91.37 499.12 92.03 498.78 89.89C498.44 87.75 499.29 85.79 500.78 87.3C501.145 87.7445 501.601 88.1063 502.116 88.3615C502.632 88.6167 503.196 88.7595 503.77 88.7803C504.345 88.8011 504.918 88.6995 505.451 88.4822C505.983 88.2649 506.464 87.937 506.86 87.52C509.17 85.43 510.54 80.72 508.57 78.9C505.937 76.1949 503.975 72.9104 502.84 69.31C502.442 68.0763 501.753 66.9568 500.83 66.0463C499.907 65.1358 498.779 64.4613 497.54 64.08C497.54 64.08 497.71 50.5 497.54 43.94C497.37 37.38 497.03 19.75 495.92 19.58C494.81 19.41 495.4 32.68 495.32 37.38C495.01 42.4073 494.046 47.3726 492.45 52.15C491.29 55.51 491.61 62.9 491.61 62.9C491.61 62.9 489.14 59.25 484.93 59.16C487.99 61.16 489.65 67.96 489.27 68.6C488.89 69.24 485.22 72.44 485.1 76.01C481.27 73.19 474.9 74.52 474.9 74.52C474.9 74.52 481.82 76.7 484.12 80.95C478.04 79.46 475.67 83.28 475.67 83.28C475.67 83.28 479.23 83.21 483.08 83.5C486.93 83.79 491.14 85.27 492.45 87.69C490.18 92.77 485.58 94.58 482.91 94.19C480.24 93.8 478.21 96.19 476.29 95.87C474.37 95.55 472.44 96.6 467.14 96.3C469.215 97.6674 471.534 98.6215 473.97 99.11C476.06 99.47 476.57 101.9 479.57 103.2C482.57 104.5 483.02 104.06 485.92 107.7C488.82 111.34 492.39 111.82 492.45 112.62C492.51 113.42 491.37 114.95 489.04 115.24C486.71 115.53 481.95 116.4 479.04 115.98C476.13 115.56 474.68 117.14 472.14 117.21C469.6 117.28 465.32 114.62 464.25 116.12C463.18 117.62 463.51 120.3 467.18 123.12C470.85 125.94 477.74 130.75 477.74 130.75C475.686 131.845 473.702 133.068 471.8 134.41C470.05 135.8 467.85 136.41 463.57 136.27C460.061 136.044 456.568 135.61 453.11 134.97C453.11 134.97 456.37 139.03 458.67 139.69C460.97 140.35 461.49 141.49 462.67 143.22C463.85 144.95 473.78 146.46 479.89 147.35C486 148.24 488 145.83 488 145.83C488 145.83 487.37 149.67 485.33 149.83C483.29 149.99 483.06 151.06 479.27 152.94C475.48 154.82 474.17 154.7 468.42 153.83C462.67 152.96 460.01 151.67 452.42 149.56C458.54 157.77 470.66 158.42 470.66 158.42C467.508 160.164 463.94 161.015 460.34 160.88C467.21 165.64 472.97 162.96 474.56 163.54C476.15 164.12 478.23 166.71 480.72 168.22C483.21 169.73 483.95 172.05 486.9 174.06C489.85 176.07 492.41 175.75 492.18 176.43C491.95 177.11 490.02 176.74 487.92 176.93C485.82 177.12 484.29 179.74 480.04 179.48C475.79 179.22 469.87 175.48 468.23 176.3C466.59 177.12 467.72 183.66 469.36 187.6C471 191.54 478.57 195.6 483.05 197.2C487.53 198.8 490.25 201.85 490.37 204.2C490.49 206.55 482.14 211.32 478.57 211.88C475 212.44 472.35 210.55 468.85 210.5C465.35 210.45 462.48 214.91 464.51 219.98C466.54 225.05 474.39 231.35 474.39 231.35C474.39 231.35 470.39 232.86 467.55 231.89C464.71 230.92 459.44 231.15 462.76 236.95C464.91 240.7 472.32 243.6 477.32 245.22L476.82 245.62C476.82 245.62 470.48 251 466 253.41C461.52 255.82 450.57 258.47 450.57 258.47C450.57 258.47 455.33 251.2 454.69 248.6C454.05 246 452.04 244.6 448.3 245.24C457.6 240.68 456.44 232.99 455.71 232.32C454.98 231.65 453.63 231.55 451.89 233.05C450.15 234.55 443.6 235.3 441.03 234.43C438.46 233.56 433.5 229.98 433.5 229.98C433.5 229.98 437.18 231.19 438.63 230.57C440.08 229.95 440.8 228.82 443.49 228.86C446.18 228.9 449.08 224.86 446.96 218.14C455.52 218.06 462.73 208.25 461.55 207.38C460.37 206.51 456.04 212 452.17 211.87C454.17 205.33 455.25 196.62 452.51 195.48C449.77 194.34 447.8 200.6 446.01 200.74C444.22 200.88 442.15 203.06 440.14 203.25C438.13 203.44 437.55 202.85 429.52 201.47C434.27 201.13 437.85 194.91 438.52 189.91C439.19 184.91 438.52 182.49 437.23 181.84C435.94 181.19 434.67 182.9 433.33 182.75C431.701 182.364 430.193 181.581 428.94 180.47C427.38 179.3 422.94 179.83 422.94 179.83C422.94 179.83 427.82 175.71 429.1 173.06C430.38 170.41 433.66 167.34 439.47 161.06C437.73 160.5 432.38 163.46 432.38 163.46C432.38 163.46 431.66 160.09 429.66 158.8C427.66 157.51 422.27 160.15 421.89 159.9C421.51 159.65 421.16 158.9 421.5 157.14C422.94 157.29 425.38 149.55 425.71 146.01C426.04 142.47 426.27 133.64 425.16 131.53C424.05 129.42 423.16 127.46 423.6 124.79C424.04 122.12 422.83 119.28 419.6 114.38C419.6 114.38 418.88 132.45 418.66 134C418.44 135.55 417.83 135.63 415.73 141.56C413.63 147.49 415.07 162.35 413.73 159.41C412.39 156.47 409.31 154.34 406.73 154.47C404.15 154.6 404.09 158.63 405.08 160.57C406.07 162.51 409.08 168.44 411.44 173.69C413.8 178.94 412.63 181.84 412.63 181.84C412.63 181.84 410.81 182.09 406.63 184.93C402.45 187.77 404.82 196.12 404.82 196.12C404.82 196.12 400.42 192.81 397.18 193.05C401.9 199.78 412.42 203.11 412.42 203.11C412.42 203.11 403.1 206.24 397.62 205.01C392.14 203.78 379.62 203.01 379.39 203.01C379.16 203.01 391.16 213.4 391.16 213.4C391.16 213.4 385.92 211.23 382.71 213.09C386.03 217.66 395.21 218.5 395.21 218.5C397.87 220.635 401.029 222.06 404.39 222.64C404.39 225.96 410.82 230.57 410.82 230.57C410.82 230.57 400.58 235.93 397.07 236.36C393.56 236.79 391.92 233.36 389.85 235.52C387.78 237.68 389.41 242.62 393.46 243.08C390.61 243.71 377.54 247.08 377.54 247.08C377.54 247.08 387.88 249.08 389.74 250.34C391.6 251.6 399.74 250.69 403.22 250.99C406.7 251.29 406.22 254.11 405.53 255.91C404.84 257.71 394.98 261.58 389.53 262.03C384.08 262.48 377.53 263.37 377.53 263.37C377.53 263.37 381.22 263.73 386.13 267.93C391.04 272.13 399.8 275.42 399.8 275.42C396.38 276.79 394.67 277.48 391.26 278.88C398.26 279.542 405.156 281.04 411.8 283.34C403.678 290.49 393.806 295.359 383.19 297.45C385.19 299.58 397.69 308.33 408.38 301.31C404.97 307.43 393.11 313.86 387.87 313.49C382.63 313.12 378.18 307.12 378.18 307.12C378.18 307.12 378.38 317.66 388.09 322.93C384.09 322.5 376.45 325.02 376.45 325.02C387.45 328.49 400.88 330.02 412.13 327.09C409.26 335.25 400.45 337.45 393.99 339.09C387.53 340.73 385.33 338.39 374.71 339.92C386.09 352.15 398.05 352.27 398.05 352.27C398.05 352.27 395.36 356.32 379.27 357.48C374.391 357.785 369.502 357.051 364.927 355.327C360.352 353.603 356.195 350.929 352.73 347.48C359.29 359.48 372.22 367.14 384.6 371.83C372.61 376.894 359.134 377.166 346.95 372.59C349.73 377.95 361.1 381.08 361.1 381.08C353.232 381.165 345.525 378.856 339 374.46C345 391.7 352.86 392.65 355.22 393.02C357.58 393.39 368.57 405.89 368.57 405.89C356.496 406.091 344.628 402.743 334.44 396.26C338.81 405.95 346.76 413.11 355.76 418.47C355.76 418.47 351.02 418.97 341.44 413.79C355.06 430.79 379.9 432.79 399.94 433.17C385.24 454.67 346.72 446.12 327.15 439.36C337.15 451.53 350.06 464.85 367.38 463.12C359.73 475.9 343.17 479.8 329.38 476.51C335.49 486.75 348.48 491.07 359.75 491.51C570.98 501.79 773.35 574.88 984.36 587.19C977.28 580.01 973.72 576.39 966.58 569.07C976.74 576.83 998.21 584.07 1009.11 574.07C998.97 577.81 986.84 563.07 986.84 563.07C986.84 563.07 991.61 563.83 994.91 560.85C998.21 557.87 1000.8 556.8 1007.12 555.35C1013.44 553.9 1016.05 547.91 1016.05 547.91C1016.05 547.91 999.98 548.39 995.48 548.02C984.48 547.1 977.84 538.69 970.67 531.18C983.06 539.97 1006.77 545.58 1019.47 534.66C1012.88 536.74 1004.79 532.36 1004.79 532.36C1008.32 531.441 1011.74 530.147 1015 528.5C1020.34 525.79 1025.66 515.9 1025.66 515.9ZM450.66 276.43C453.75 274.395 456.706 272.164 459.51 269.75C464.57 272.45 470.75 271.28 470.75 271.28C470.75 271.28 459.79 278.33 450.62 276.43H450.66ZM469.9 299.23C466.066 296.727 462.718 293.549 460.02 289.85C462.549 290.986 465.362 291.335 468.092 290.852C470.823 290.369 473.344 289.075 475.33 287.14C475.29 291.42 469.69 293 469.86 299.23H469.9ZM477.38 250C477.38 250 478.02 247.35 478.49 245.53C480.58 246.18 482.02 246.53 482.02 246.53L477.38 250ZM520.19 233.15C523.8 234.65 525.6 235.41 529.19 236.93C529.19 236.93 519.3 236.64 513.04 238.18C515.704 236.947 518.126 235.247 520.19 233.16V233.15ZM539.65 269.06C540.42 271.44 531.2 289.45 531.2 289.45C531.2 289.45 533.87 270.3 531.72 267.45C529.57 264.6 521.14 261.58 521.14 261.58C528.14 260.58 532.92 248.8 532.92 248.8C532.92 248.8 536.45 252.74 538.44 253.09C535.51 256 537.92 260.28 540.08 261.94C538 263.74 538.87 266.68 539.65 269.07V269.06ZM603.1 221.6C608.22 224.76 619.66 223.27 619.66 223.27C619.66 223.27 614.48 224.42 612.9 225.37C611.117 226.319 609.151 226.871 607.134 226.989C605.118 227.106 603.101 226.786 601.22 226.05C602.1 224.691 602.737 223.188 603.1 221.61V221.6ZM613.43 254.16C614.94 256.16 607.72 263.73 594.49 267.32C604.01 261.44 608.78 249.67 605.87 247.1C602.96 244.53 600.41 248.53 597.39 247.2C594.37 245.87 593.68 244.87 591.7 244.64C589.72 244.41 588.46 240.87 585.9 240.64C584.418 240.537 582.968 240.165 581.62 239.54C581.62 239.54 590.2 234.6 592.4 235.46C594.6 236.32 594.95 240.23 601.57 242.23C608.19 244.23 611.57 246.47 616.45 247.29C611.91 248.29 611.91 252.15 613.43 254.17V254.16ZM696.56 227.73C697.69 227.53 700.93 228.94 703.47 226.66C706.01 224.38 708.71 220.32 708.8 218.52C708.82 218.089 708.949 217.67 709.175 217.302C709.401 216.934 709.716 216.629 710.091 216.415C710.466 216.201 710.889 216.086 711.321 216.08C711.753 216.074 712.179 216.177 712.56 216.38C714.48 217.2 721.64 220.67 724.88 219.92C718.94 216.59 717.45 212.86 717.45 212.86L732.21 217.52C723.9 224.16 709.92 232.52 701.37 232.24C699.13 232.17 695.42 227.94 696.56 227.74V227.73ZM727.06 243.73C725.14 245.21 717.57 248.19 717.57 248.19C717.57 248.19 720.57 241.01 718.67 237.63C718.67 237.63 724.85 237.44 732.53 237.03C728.17 238.16 729 242.25 727.06 243.72V243.73ZM755.66 324.08C752.61 319.62 751.09 317.38 748.04 312.9C748.814 311.863 749.812 311.015 750.96 310.42C752.48 309.81 754.09 311.03 755.27 312.6C756.45 314.17 755.7 323.55 755.66 324.07V324.08ZM772.27 258.32C772.026 255.325 772.026 252.315 772.27 249.32C774.766 254.355 778.017 258.978 781.91 263.03C781.91 263.03 773.49 259.61 772.27 258.31V258.32ZM824.6 379.43C820.82 377.82 819.87 376.8 817.54 379.07C815.21 381.34 822.19 392.95 822.19 392.95C822.19 392.95 813.84 386.35 810.82 384.11C807.8 381.87 804.51 385.99 802.96 383.78C799.67 379.12 798.46 376 798.72 374.98C798.98 373.96 802.96 372.43 808.49 373.62C814.02 374.81 815.56 373.48 818.06 373.91C820.56 374.34 825.12 376.52 827.18 376.76C828.464 376.912 829.757 376.989 831.05 376.99C831.57 378.36 831.83 379.05 832.34 380.42C829.717 380.738 827.056 380.395 824.6 379.42V379.43ZM850.17 364.36C844.01 366.6 827.83 365.64 824.6 363.57C816.36 358.29 809.23 347.94 802.01 339.89C802.01 339.89 807.71 340.34 810.24 342.22C812.77 344.1 812.43 344.04 817.37 345.75C822.31 347.46 825.52 344.75 828.37 346.93C831.22 349.11 837.19 350.26 839.47 349.21C841.75 348.16 847.13 352.45 850.32 350.1C853.51 347.75 859.88 349.59 859.88 349.59C859.88 349.59 856.32 362.11 850.17 364.35V364.36ZM867.74 457.7C867.74 457.7 861.1 447.49 856.49 446.24C862.028 444.507 867.3 442.021 872.16 438.85C870.39 446.39 869.51 450.16 867.74 457.69V457.7ZM934.45 425.61C933.586 426.316 932.994 427.3 932.773 428.394C932.553 429.488 932.718 430.624 933.24 431.61C933.24 431.61 924.6 429.31 916.12 420.33C925.82 418.74 934.45 425.6 934.45 425.6V425.61ZM919.91 505.92C921.65 502.06 922.51 500.13 924.25 496.26C926.96 496.33 928.31 496.36 931.02 496.41C926.59 500.22 924.36 502.13 919.91 505.91V505.92ZM921.1 484.2V471C921.1 471 934.38 476.55 947.01 475C936 482.6 921.1 484.19 921.1 484.19V484.2ZM946.27 414.53C942.47 413.11 936.17 406.72 933.84 404.87C931.519 402.897 929.077 401.07 926.53 399.4C924.44 398.21 921.86 396.97 925.44 395.4C929.02 393.83 939.44 393.77 939.44 393.77C939.44 393.77 943.75 400.29 946.97 400.58C946.97 400.58 940.88 403.14 934.72 401.13C952.4 413.73 957.35 405.94 957.35 405.94C957.58 409.35 957.69 411.05 957.92 414.47C955.09 417.31 950.07 415.93 946.27 414.52V414.53Z" fill="url(#paint0_linear_836:26613)"/>
<path d="M910.498 528.529C910.498 528.529 863.598 510.246 844.853 510.028C826.107 509.81 837.905 481.622 872.925 491.759C872.925 491.759 883.199 460.066 919.602 484.594C919.602 484.594 954.908 445.556 969.354 510.746C969.354 510.746 1005.93 509.837 981.711 528.529C981.711 528.529 932.469 538.589 910.498 528.529Z" fill="#52827A"/>
<path d="M987.39 608.61L1002.62 522C1002.62 522 989.8 514.09 813.22 499.75L-129.09 461.11C-129.09 461.11 -179.09 462.37 -190.86 463.47V489.1L987.39 608.61Z" fill="#97CEB2"/>
<path d="M985.93 608.61L-187.01 469.77V545.34L290.3 795.21H985.93V608.61Z" fill="#404363"/>
<path d="M211.19 753.79L211.83 672.29L201.82 663.71L200.41 748.15L211.19 753.79Z" fill="#2F334B"/>
<path d="M78.15 684.24L78.79 614.86L68.66 613.6L67.37 679.43L78.15 684.24Z" fill="#2F334B"/>
<path d="M460.42 821.17L201.82 702.67L-187.01 519.68V513.66L460.42 795.21V821.17Z" fill="#2F334B"/>
<path d="M588.28 829.33L199.87 674.36L-196.63 508.64L-196.9 502.62L587.13 803.39L588.28 829.33Z" fill="#2F334B"/>
<path d="M290.3 795.21L-187.01 545.34H-203.68L-208.16 795.21H290.3Z" fill="#A3D3B9"/>
<path d="M-3 773.52C-3 773.52 -106.08 733.3 -147.28 732.82C-188.48 732.34 -162.55 670.33 -85.58 692.63C-85.58 692.63 -63 622.91 17.01 676.87C17.01 676.87 94.61 590.99 126.36 734.4C126.36 734.4 206.76 732.4 153.52 773.52C153.52 773.52 45.29 795.65 -3 773.52Z" fill="#52827A"/>
<path d="M413.7 197.16L414.7 196.9C412.6 197.43 413.76 197.16 413.7 197.16Z" fill="#40798C"/>
<path d="M393.51 202.85L393.84 202.66L390.91 203.66C391.79 203.41 392.64 203.11 393.51 202.85Z" fill="#40798C"/>
<path d="M374.3 206.54C375.872 206.666 377.453 206.51 378.97 206.08C380.9 205.63 382.97 205.08 384.73 204.82H385.33L386.76 204.05C384.69 204.49 382.33 205.05 380.11 205.58C378.195 206.019 376.255 206.339 374.3 206.54Z" fill="#40798C"/>
<path d="M363.67 205.89C364.37 206.21 361.48 206.37 366.1 205.82C365.86 205.82 365.79 205.82 365.65 205.76C365.23 205.8 364.66 205.84 363.67 205.89Z" fill="#40798C"/>
<path d="M365.65 205.76C367.65 205.59 364.26 205.56 365.65 205.76V205.76Z" fill="#40798C"/>
<path d="M356.27 206.69L358.9 206.13C358.31 205.93 355.9 206.03 356.78 205.79C354.06 206.16 354.65 206.4 356.27 206.69Z" fill="#40798C"/>
<path d="M353.81 207.65L355.19 207.42C354.93 207.32 354.56 207.3 353.81 207.65Z" fill="#40798C"/>
<path d="M358.1 206.84L355.19 207.42C355.6 207.57 355.69 207.91 356.53 207.18C356.33 207.52 356.87 207.16 358.1 206.84Z" fill="#40798C"/>
<path d="M359.79 206.86C361.33 206.96 363.3 206.86 360.64 207.5C365.77 206.88 364.91 206.31 359.79 206.86Z" fill="#40798C"/>
<path d="M373.47 207.51L375.47 207.4L377.16 206.85C376.37 207.12 373.3 207.29 373.47 207.51Z" fill="#40798C"/>
<path d="M339.47 206.59C339.32 206.87 340.47 207.34 340.65 207.7L342.65 207.36C341.58 207.18 339.63 207 339.47 206.59Z" fill="#40798C"/>
<path d="M340.65 207.7L337.71 208.23C340.38 208.24 340.85 208 340.65 207.7Z" fill="#40798C"/>
<path d="M353.47 208.92C355.08 208.55 356.67 208.1 358.26 207.67L355.4 208.37L352.53 209L353.47 208.92Z" fill="#40798C"/>
<path d="M328.14 206.46L329.79 205.78L326.84 206.8L328.14 206.46Z" fill="#40798C"/>
<path d="M320.63 206.37C321.85 205.76 318.91 205.2 320.21 204.85C318.4 204.917 316.608 205.226 314.88 205.77C316.817 205.608 318.768 205.811 320.63 206.37Z" fill="#40798C"/>
<path d="M312.25 206.4C313.139 206.246 314.018 206.036 314.88 205.77C313.98 205.866 313.096 206.077 312.25 206.4Z" fill="#40798C"/>
<path d="M332.63 208.16C331.948 207.626 331.116 207.318 330.25 207.28C330.65 207.58 331.06 207.89 331.46 208.17L332.63 208.16Z" fill="#40798C"/>
<path d="M331.5 208.2C330.23 208.2 329.35 208.14 328.97 208.12L331.5 208.2Z" fill="#40798C"/>
<path d="M332.93 208.16H332.63C332.75 208.25 332.82 208.27 332.93 208.16Z" fill="#40798C"/>
<path d="M345.59 208.78C343.89 209.33 340.26 209.95 343.86 210.43C345.07 209.82 343 209.58 345.59 208.78Z" fill="#40798C"/>
<path d="M334.44 209.2L337.62 209.3C337.54 209.09 336.95 208.78 337.81 208.54L334.44 209.2Z" fill="#40798C"/>
<path d="M332.9 209.51L334.44 209.2L333.26 209.16L332.9 209.51Z" fill="#40798C"/>
<path d="M317.67 207.6C316.178 207.913 314.652 208.03 313.13 207.95C314.939 208.223 316.762 208.393 318.59 208.46C318.83 208.16 319.6 207.65 317.67 207.6Z" fill="#40798C"/>
<path d="M324.39 208L324.09 208.05C324.28 208.13 324.43 208.16 324.39 208Z" fill="#40798C"/>
<path d="M296.51 207.07L296.78 207.29C296.794 207.225 296.814 207.161 296.84 207.1L296.51 207.07Z" fill="#40798C"/>
<path d="M318.9 208.65C319.886 208.822 320.901 208.715 321.83 208.34C320.83 208.41 319.75 208.48 318.59 208.46C318.48 208.59 318.46 208.68 318.9 208.65Z" fill="#40798C"/>
<path d="M307.63 206.66C308.401 206.93 309.185 207.161 309.98 207.35C309.29 207 307.88 206.4 307.63 206.66Z" fill="#40798C"/>
<path d="M323.62 207.79H323.82C323.37 207.54 323.43 207.64 323.62 207.79Z" fill="#40798C"/>
<path d="M323.62 207.79C323.006 207.912 322.406 208.096 321.83 208.34C322.588 208.284 323.342 208.187 324.09 208.05C323.924 207.982 323.766 207.895 323.62 207.79Z" fill="#40798C"/>
<path d="M291.2 214.24C291.49 213.15 295.13 212.35 298.2 213.52C301.29 212.8 299.35 209.4 296.76 207.29C296.65 207.74 296.64 208.18 293.49 208.61C294.56 209.31 300.41 210.29 297.73 211.14C293.55 211.54 294.33 210.64 292.33 209.94C294 211.38 286.95 211.63 287.77 213.72L291.47 213.16C291.54 213.47 290.19 213.92 291.2 214.24Z" fill="#40798C"/>
<path d="M302.73 207.75L304.02 207.7C302.468 207.364 300.977 206.791 299.6 206C297.46 206.36 297 206.72 296.84 207.07L303.17 207.59L302.73 207.75Z" fill="#40798C"/>
<path d="M309.79 208C308.79 209 305.68 209.39 307.57 210.6C311.36 210.6 310.23 209.76 312.49 209.38C306.39 209.46 314.24 208.86 309.84 208.12C310.933 208.009 312.031 207.959 313.13 207.97C312.03 207.8 310.97 207.6 309.98 207.37L310.12 207.44C310.38 207.58 310.47 207.67 310.17 207.58H310.04C309.981 207.726 309.889 207.856 309.77 207.96C308.01 207.68 309.49 207.68 310.04 207.58C310.074 207.531 310.101 207.477 310.12 207.42C308.12 207.53 306.05 207.64 304.02 207.7C305.93 207.975 307.862 208.076 309.79 208Z" fill="#40798C"/>
<path d="M340.71 212.31C340.51 212.25 340.52 212.19 340.5 212.14C340.11 212.26 340 212.33 340.71 212.31Z" fill="#40798C"/>
<path d="M338.14 212C338.836 211.648 339.611 211.482 340.39 211.52C341.67 211.69 340.39 211.9 340.5 212.17C341.36 211.89 343.5 211.43 340.75 211.17L340.32 211.31C337.82 211.17 334.59 210.24 335.02 210.1C335.894 210.973 336.963 211.624 338.14 212Z" fill="#40798C"/>
<path d="M323.74 210.7L318.64 211.22C319.51 211.51 320.38 211.76 321.26 212.03L321.12 211.53C324 211.68 323.39 211.08 323.74 210.7Z" fill="#40798C"/>
<path d="M296 206.46L296.71 205.29L293.71 206.8C294.44 206.7 295.19 206.58 296 206.46Z" fill="#40798C"/>
<path d="M289.36 206.08L289.64 205L287.88 205.51L289.36 206.08Z" fill="#40798C"/>
<path d="M126.45 188.3C124.39 186.42 122.14 183.55 122.24 185.62L122.76 187.62C124.031 187.438 125.327 187.676 126.45 188.3Z" fill="#40798C"/>
<path d="M13.4 192.53L14.01 193.22L15.6 191.22C14.94 191.65 14.19 192.08 13.4 192.53Z" fill="#40798C"/>
<path d="M11.36 201.38L8.54999 199.82C9.39824 200.485 10.3467 201.012 11.36 201.38Z" fill="#40798C"/>
<path d="M221.67 199.16C220.203 198.446 218.65 197.925 217.05 197.61C219.24 198.83 221 200.43 221.67 199.16Z" fill="#40798C"/>
<path d="M211.6 197C211.92 197.21 212.24 197.33 212.6 197.51C214.096 197.354 215.607 197.404 217.09 197.66C215.44 196.72 213.56 196 211.6 197Z" fill="#40798C"/>
<path d="M262.88 202.89C264.28 202.96 263.11 202.77 262.88 202.89V202.89Z" fill="#40798C"/>
<path d="M269.32 209C269.174 209.036 269.04 209.111 268.933 209.217C268.826 209.322 268.749 209.455 268.71 209.6C268.765 209.464 268.848 209.34 268.953 209.237C269.058 209.134 269.183 209.053 269.32 209Z" fill="#40798C"/>
<path d="M196.59 206H196.47C196.85 206.35 196.79 206.28 196.59 206Z" fill="#40798C"/>
<path d="M264.93 203.75C264.363 203.506 263.778 203.306 263.18 203.15C263.748 203.391 264.333 203.592 264.93 203.75Z" fill="#40798C"/>
<path d="M264.7 203.07L265.91 203.35C266.1 203.14 266 203 264.7 203.07Z" fill="#40798C"/>
<path d="M260.92 202.75C261.684 202.817 262.44 202.951 263.18 203.15C262.91 203.02 262.8 202.93 262.88 202.89L260.92 202.75Z" fill="#40798C"/>
<path d="M88.08 206.46C88.14 206.46 88.18 206.39 88.24 206.37L88.04 206.28L88.08 206.46Z" fill="#40798C"/>
<path d="M82.9 207.68C85.24 205.24 86.44 205.68 88.04 206.28L86.79 200.21L82.9 207.68Z" fill="#40798C"/>
<path d="M-113.43 199.26L-109.91 201.26C-114.26 204.18 -117.34 203.02 -114.05 205.74C-113.43 199.28 -100.23 205.58 -99.6 199.05L-97.28 200.51C-97.95 200.42 -98.07 200.8 -98.73 200.72C-94.24 204.02 -95.2299 196.08 -89.37 197.18C-87.37 197.75 -85.93 198.75 -87.37 199.49L-82.76 197.99C-81.43 198.17 -81.7599 199.32 -83.11 199.14L-76.11 198.87L-76.16 199.06C-74.7832 197.86 -73.2967 196.792 -71.72 195.87C-69.97 196.87 -72.63 196.55 -72.2 197.4L-68.29 195.92C-66.77 197.72 -70.02 199.28 -72.68 198.92C-69.2899 205.73 -69.42 197.36 -61.78 201.56L-65.45 202.27C-63.23 206.17 -60.35 204.89 -56.32 207.42C-57.25 206.14 -64.3199 201.13 -60.11 199.61C-58.9399 200.16 -57.4 200.46 -55.11 199.18C-55.18 201.57 -52.95 201.07 -50.19 201.06L-50.5 204.23C-47.5 203.45 -47.66 201.82 -45.85 200.47C-42.54 200.93 -41.95 203.47 -41.25 205.54C-35.95 206.29 -44.76 201.42 -38.44 201.1C-34.06 202.51 -30.91 201.34 -25.52 199.65C-22.47 200.89 -26.15 201.58 -25.08 202.54L-22.22 200.12C-21.55 200.22 -21.8 200.99 -21.93 201.38C-19.57 200.5 -21.59 198.19 -17.93 197.51C-16.78 194.05 -10.7 203.03 -6.00998 199.25C-4.93997 200.25 -6.63995 201.18 -6.35995 202.43C-0.0499573 200.11 -0.969971 200.78 4.29004 197.51L8.51004 199.82C5.46005 197.25 9.67001 194.65 13.36 192.53C12.5487 191.544 11.6806 190.605 10.76 189.72L16.55 188.35C17.2 188.91 16.55 189.97 15.55 191.24C15.96 191 16.3401 190.76 16.64 190.54C18.64 191.83 17.45 193.61 15.89 195.3C15.2401 194.64 14.59 193.93 13.96 193.22C12.45 195.08 11.02 197.14 11.21 199.03C11.7668 198.616 12.4215 198.354 13.11 198.27C12.72 198.77 12.46 199.27 12.61 199.56C12.76 199.85 13.42 199.23 14.39 198.47L15.48 202.09L15.87 200.7L23.17 203.32C28.6801 200.06 33.6201 195.04 42.17 194.14C39.92 196.58 41.4601 198.32 41.17 201.36C39.07 197.98 34.56 202.36 30.23 201.46C32.4901 201.93 31.9 203.36 31.29 203.84L39.29 201.32C38.9601 203.82 40.83 203.32 42.8 204.45C41.57 199.45 48.8 201.52 52.08 200.21C52.17 201.86 51.3 203.5 47.46 202.87C51.46 206.82 53.34 197.44 57.33 200.87C56.38 200.87 55.89 200.57 55.46 201.38C57.77 200.06 63.09 201.54 61.72 202.89H60.78C67.01 203.81 79.86 204.12 81.09 200.11C80.7322 202.043 80.1931 203.938 79.48 205.77C83.48 201.44 87.59 197.13 91.65 192.89C90.42 196.3 93.65 204.79 88.25 206.43C89.2628 206.901 90.3595 207.165 91.4758 207.206C92.592 207.248 93.7053 207.065 94.75 206.67C93.75 206.12 92.58 201.51 94 201.29C97.53 205.39 96.5 203.51 101 207.1C99.53 206.26 101.63 200.99 104 201.35C103.56 202.12 103.8 206.65 102.88 207.15L109.28 202.32C107.71 203.16 108.68 206.75 109.91 208.32C109.36 207.25 115.09 208.75 116.73 208.32L114.28 206.95C121 208.17 121.55 200.14 128.28 200.95C127.39 201.95 125.75 207.31 129.12 208.18C130.9 205.66 137.07 196.18 143.19 194.82L144.19 196.39L148.9 195.15C143.873 200.286 138.36 204.925 132.44 209C134.88 210.35 133.01 210.8 136.82 210.92C138.04 212.39 134.57 212.92 133.45 212.92L142.22 214.36C142.07 211.36 149.22 211.82 149.1 209.36L139.24 211.79C139.09 208.79 145.49 203.71 151.72 204.74C153.21 206.03 150.08 209.88 150.13 210.88C151.03 209.88 156.24 209.36 156.76 210.11L154 211.42C157.4 212.73 160 207.96 164 211.03C165.43 211.32 168 215.03 168.4 213.33C166.32 209.94 166.73 199.78 168.52 197.5C169 197.78 175.84 201.33 177.36 203.04C179.52 205.73 173.25 208.72 175.09 211.04C175.25 210.28 176.65 209.43 177.22 209.17C178.68 209.94 176.38 211.49 179.72 211.38C180.52 208.61 186.41 212.11 181.49 209.12C184.79 208.57 184.87 209.96 188.68 210.12C187.68 208.22 192.68 204.34 195.93 203.9C195.68 204.57 196.32 205.54 196.64 205.98C203.23 206.83 206.64 208.35 212.85 208.9C213.36 209.58 216.27 210.58 214.85 211.58C215.966 210.867 217.265 210.492 218.59 210.5C222.07 212.99 214.31 210.5 216.87 213.37C217.25 211.9 221.99 211.71 224.79 211.04C224.17 208.73 218.57 210.04 215.79 210.77C216.08 207.58 221.12 204.71 227.68 204.01C232.87 203.81 229.68 206.21 230.68 205.87C240.25 207.34 239.33 201.58 247.1 204.57C250.1 206.71 246.93 208.19 247.52 209.57C243.28 209.92 241.21 207.81 238.38 207.57L241.78 208.79C239.933 209.38 237.947 209.38 236.1 208.79C238.61 210.73 252.34 210.6 259.67 212.58C261.04 212.09 263.36 211.66 262.33 210.89L259.96 210.96C257.96 209.38 264.53 209.39 261.61 208.5C264.83 207.77 268.45 206.69 272.81 207.79L273.53 209.71C273.47 209.16 270.71 208.39 269.42 208.85C271.31 208.2 276.07 211.85 278.23 209.6L275.23 208.09C278.45 207.39 282.43 205.91 286.3 206.75C284.61 204.88 285.39 206.89 282.72 204.62C284.99 207.41 272.72 203.52 276.46 206.62C275.4 205.552 274.046 204.825 272.57 204.53C270.928 204.206 269.378 203.523 268.03 202.53C268.1 203.18 269.26 203.89 266.03 203.21C265.797 203.4 265.542 203.561 265.27 203.69L265.05 203.61L265.23 203.71C265.08 203.79 265.07 203.81 265.3 203.71C265.917 203.961 266.466 204.355 266.9 204.86C265.17 206.13 259.95 205.58 258.12 206.2C256.19 205.69 258.99 205.53 257.98 204.72L255.25 205.61C255.1 204.12 250.25 202.56 254.93 202.23L250.82 201.67C248.46 200.54 245.16 199.77 243.04 200.16C241.12 199.58 237.97 201.28 239.77 200.27L233.21 200.46V200.05C226.84 199 219.77 201.23 212.71 197.29C210.018 197.646 207.284 197.49 204.65 196.83L204.09 195.23C201.26 195.43 195.89 192.67 194.55 194.13C191.94 189.54 181.15 191.62 176.34 190.29L175.96 192.39C172.61 191.89 169.33 192.15 165.08 192.56L165.17 194.5C161.44 195.7 156.03 192.19 150.31 191.81C150.76 191.09 152.19 191.43 153.18 191.99C149.96 189.44 146.29 189.86 142.7 190.49C139.11 191.12 135.58 191.92 132.63 189.95C132.024 190.199 131.366 190.296 130.714 190.232C130.062 190.167 129.435 189.943 128.89 189.58C129.025 189.587 129.159 189.559 129.28 189.5C129.072 189.463 128.861 189.436 128.65 189.42C128 189.01 127.33 188.53 126.65 188.13C127.151 188.636 127.728 189.061 128.36 189.39C126.744 189.335 125.127 189.462 123.54 189.77L122.96 187.5C122.82 187.5 122.7 187.5 122.55 187.5C120.88 186.5 121.07 188.42 121.87 190.17C121.004 190.415 120.181 190.793 119.43 191.29C118.3 187.59 114.7 192.1 113.07 188.09C111.74 189.85 104.07 188.71 102.84 192.63C102.84 192.1 102.32 191.81 103.27 191.86C101.34 191.24 99.4 190.61 97.55 191.61L96.93 188.61L92.34 192.17C89.86 190.17 88.85 189.08 91.61 187.05C85.09 190 86.42 187.94 80.85 190.96L81.24 189.09C79.33 189.01 76.11 191.33 75.07 189.67C71.07 185.67 54.01 187.67 43.27 183.47C45.04 189.37 38.34 180.53 37.63 184.98C37.07 183.58 35.63 182.72 37.44 181.64C31.76 182.64 29.15 178.96 25.07 182.5C24.51 181.08 26.38 180.57 25.86 179.72C25.39 179.99 24.01 180.8 23.48 179.95C22.95 179.1 24.36 178.85 25.28 178.31C19.55 178.18 18.73 182.37 18.1 186.31C15.31 184.31 13.84 184.43 11.61 186.92C10.68 185.56 9.07001 184.11 12.61 183.85C10.61 183.52 0.51004 181.29 0.140045 184.47C-0.449951 183.63 -2.63998 184.09 -3.18997 184.47C-7.65997 184.06 -8.03995 183.75 -12.46 183.83L-11.26 184.41C-13.19 188.18 -14.96 185.09 -18.53 185.41L-18.41 185.02C-26.41 181.85 -21.9799 186.19 -29.87 182.68L-29.54 185.09C-30.54 190.2 -36.5399 181.77 -41.27 183.55L-39.64 184.98C-42.26 186.64 -46.48 177.73 -49.03 176.98C-49.57 176.51 -48.12 176.3 -47.33 175.98C-53.92 172.71 -48.33 179.06 -53.33 179.61C-54.1899 177.9 -51.99 175.37 -55.33 174.96C-56.97 173.56 -65.28 180.13 -69.76 176.81C-68.76 178.12 -67.83 179.43 -70.18 180.33C-73.75 180.69 -79.66 175.24 -82.98 179.18C-83.1502 179.069 -83.2939 178.922 -83.401 178.749C-83.5081 178.576 -83.576 178.382 -83.6 178.18C-86.34 179.18 -92.48 179.76 -94.17 181.89C-95.33 177.89 -99.58 178.77 -103.5 179.76C-107.42 180.75 -111.03 181.76 -110.93 178.14C-113.72 178.22 -116.51 178.36 -119.31 178.48L-119.08 177.74C-124.42 177.25 -126.33 178.98 -128.23 180.69C-129.46 180.19 -128.55 179.53 -128.45 179.15C-136.24 177.67 -137.03 178.02 -143.6 181.51L-144.27 179.22C-146.04 180.54 -155.55 175.77 -163.27 178.51C-163.206 178.293 -163.097 178.092 -162.951 177.92C-162.804 177.748 -162.624 177.608 -162.42 177.51C-166.73 178.88 -171.9 177.38 -176.42 176.65C-180.94 175.92 -184.72 175.92 -186.26 179.85L-191.92 181.85C-184.57 182.31 -192.98 185.22 -189.92 186.45C-192.8 186.93 -197.42 184.23 -193.92 183.79L-193.36 184.16C-192.11 180.16 -202.52 182.92 -202.36 180.23C-209.59 180.53 -216.75 180.35 -223.79 180.12C-227.32 180.01 -230.79 179.9 -234.27 179.84C-237.75 179.78 -241.16 179.84 -244.55 180.03L-242.9 182.7L-247.63 182.79C-248.89 182.22 -249.37 180.79 -245.99 180.67C-247.82 179.23 -251.61 182.29 -251.68 182.86C-258.32 182.15 -249.21 179.59 -251.24 179.63L-253.98 180L-253.35 180.28C-255.54 181.5 -255.7 182.66 -259.75 182.76C-262.34 182.38 -261.13 181.22 -262.14 181.19C-262.14 181 -262.49 180.93 -263.7 181.19C-265.7 181.19 -267.7 181.3 -269.7 181.37L-267.23 183.21C-269.83 184.38 -272.83 183.46 -269.99 185.55C-272.08 183.92 -277.64 183.98 -282.99 184.39C-288.34 184.8 -293.5 185.47 -294.77 185.09C-298.38 186.71 -302.02 186.98 -306.55 187.27C-305.4 187.52 -304.55 189.39 -308.49 189.48C-307.38 185.43 -315.75 188.48 -319.13 186.21C-317.65 186.92 -320.4 187.35 -322.95 187.86C-325.5 188.37 -327.83 188.98 -325.5 189.86C-328.77 189.98 -325.84 188.57 -328.38 188.08C-335.95 190.36 -345.48 189.78 -354.91 192.02C-355 192.41 -353.32 192.71 -355.27 193.61C-357.03 193.29 -358.79 193.05 -360.55 192.81C-362.39 193.39 -361.93 195.15 -365.55 194.67C-365.02 194.85 -364.22 195.13 -365.46 195.48C-374.82 196.64 -384.14 199.27 -393.38 202.08C-395.69 202.8 -398.01 203.45 -400.32 204.17C-402.63 204.89 -404.92 205.66 -407.22 206.37C-408.37 206.74 -409.53 207.06 -410.67 207.45L-414.09 208.59L-420.9 210.88C-419.66 210.49 -419.44 210.49 -419.76 210.64C-420.08 210.79 -420.94 211.14 -421.85 211.54C-420.64 211.09 -421.79 211.8 -421.51 211.83C-424.02 212.71 -426.51 213.62 -428.99 214.59C-430.29 215.28 -436.75 218.22 -437.47 218.64L-435.19 217.57C-436.69 218.34 -435.6 217.89 -434.19 217.4C-432.78 216.91 -430.93 216.4 -431.1 216.59C-428.89 215.713 -426.621 214.991 -424.31 214.43C-422.97 214.06 -421.56 213.69 -420.13 213.24C-418.658 212.848 -417.217 212.347 -415.82 211.74C-414.47 211.51 -416.82 212.27 -416.11 212.23C-414.008 211.278 -411.803 210.57 -409.54 210.12L-409.89 210.32C-405.16 209.06 -401.75 208.32 -398.18 207.6L-392.47 206.67C-390.4 206.36 -388.13 205.93 -385.4 205.6L-386.4 205.06C-385.077 204.855 -383.737 204.785 -382.4 204.85C-379.98 203.29 -388.93 205.96 -386.77 204.39C-385.07 204.77 -380.98 204.06 -377.02 203.39C-373.06 202.72 -369.18 202.25 -367.95 203.09C-364.38 202.58 -369.19 202.24 -365.61 201.72L-364.61 202.15L-363.83 201.31C-361.45 201.11 -360.14 201.69 -359.97 202.18C-360.716 202.28 -361.454 202.43 -362.18 202.63C-359.01 202.97 -353.63 201.35 -352.53 201.52C-353.7 201.52 -354.88 201.52 -356.04 201.52C-353.62 201.07 -351.04 200.78 -348.39 200.52C-345.74 200.26 -343.03 199.94 -340.32 199.72C-337.61 199.5 -334.92 199.2 -332.32 198.86C-329.813 198.575 -327.325 198.141 -324.87 197.56L-325.65 197.03C-318.49 195.34 -319.76 197.3 -311.82 196.25L-312.09 196.42C-310.241 195.618 -308.246 195.206 -306.23 195.21C-308.23 196.07 -302.32 196.52 -304.9 197.5C-297.1 195.82 -301.08 196.29 -296.02 193.5L-294.74 194.6C-293.02 193.47 -292.9 192.91 -288.91 192.4C-292.14 193.57 -286.25 194.09 -289.85 195.59C-286.605 196.447 -283.186 196.391 -279.97 195.43C-277.45 194.83 -275.48 194.43 -273.45 196.37C-269.75 192.77 -280.83 194.63 -278.7 193.84C-280.57 192.84 -275.64 191.15 -272.97 191.4C-270.27 191.4 -268.2 195.72 -261.43 195.62C-262.11 195.62 -262.14 195.88 -262.82 195.87C-260.25 196.78 -257.9 194.54 -254.74 196.04C-253.08 193.75 -250.74 196.12 -250.3 193.2L-256.49 193.99C-253 193.2 -249.82 189.67 -243.95 191.18C-244.913 192.031 -246.039 192.677 -247.26 193.08C-245.53 193.92 -244.01 192.44 -242.26 193.3C-242.67 196.3 -249.79 194.09 -253.48 196.36C-251.61 197.58 -246.42 194.16 -248.21 197.36C-245.62 193.25 -241.53 197.83 -237.05 194.6L-237.3 196.43C-236.216 195.808 -235.013 195.423 -233.77 195.3L-236 197.85C-232.35 195.85 -228.81 199.66 -225.29 198.57C-232.73 198.57 -227.01 196.31 -230.2 194.95C-221.07 192.39 -224.79 199.85 -214.54 199C-215.93 199.27 -219.79 197.84 -217.63 196.95C-215.63 197.34 -213.07 198.09 -211.85 199.11C-205.05 198.72 -212.93 197.11 -210.06 195.91C-207.7 198.3 -206.73 194.91 -203.76 194.15L-203.7 196.15C-195.92 197.52 -201.7 191.94 -194.7 193.54L-197.62 196.36L-193.98 195.65L-194.7 197.98C-190.76 196.28 -189.52 196.73 -185.64 197.43C-186.55 195.96 -185.16 193.65 -181.72 193.59C-179.37 194.84 -183.02 195.59 -178.15 195.3C-179.24 196.62 -180.43 198.3 -182.57 196.3C-182.78 196.98 -183.64 197.6 -183.86 198.3C-181.32 199.76 -177.52 198.7 -175.75 198.68C-176.415 198.651 -177.066 198.48 -177.66 198.18L-170.61 195.31C-169.5 196.13 -170.38 196.77 -171.25 197.39C-169.82 197.18 -168.83 196.21 -166.73 196.05C-167.27 197.79 -167.14 199.61 -170.11 200.36L-163.39 198.56C-162.94 199.33 -159.94 200.74 -160.81 201.37C-157.09 202.52 -151.67 198.1 -146.73 199.57C-146.242 199.066 -145.596 198.745 -144.9 198.66C-140.25 199.17 -136.17 201.57 -130.63 199.18L-127.55 202.57C-123.23 201.93 -131.73 198.3 -124.55 197.22C-119.45 196.27 -122.69 200.1 -120.92 201.07C-118.38 199.46 -113.92 196.07 -109.3 199C-110.78 199.6 -112 199.06 -113.43 199.26ZM-60.21 199.56C-61.21 200.03 -63.36 201.5 -64.07 200.06C-62.8 197.37 -61.94 198.71 -60.21 199.56ZM20.99 197.56C20.17 198.3 18.99 197.84 17.72 196.86C18.8648 196.718 20.0237 196.976 21 197.59L20.99 197.56ZM247.43 202.39C247.39 202.407 247.353 202.431 247.32 202.46C245.09 201.58 245.88 201.93 247.43 202.42V202.39ZM252.11 203.63C252.61 203.47 252.59 203.24 252.41 202.99C252.05 203.36 250.98 203.27 249.78 202.99C250.08 203.51 250.67 203.86 252.11 203.66V203.63ZM-262.72 182.03L-261.77 182.42C-263.86 183.06 -263.29 182.58 -262.72 182.06V182.03Z" fill="#54949F"/>
<path d="M11.63 200.36C11.3991 199.954 11.2721 199.497 11.26 199.03C10.83 199.41 10.8 199.87 11.63 200.36Z" fill="#40798C"/>
<path d="M176.85 212.21C176.132 211.988 175.491 211.569 175 211C175 211.52 175.36 212 176.85 212.21Z" fill="#40798C"/>
<path d="M277.37 203.79L274.37 203.86C275.312 203.896 276.233 204.149 277.06 204.6C277 204.26 276.43 203.71 277.37 203.79Z" fill="#40798C"/>
<path d="M303.5 213.67C303.95 213.52 304.5 213.67 304.9 213.53L304.78 212.96C302.87 212.94 301.53 213.38 303.5 213.67Z" fill="#40798C"/>
<path d="M279.92 208.78C280.1 209.99 282.03 209.78 284.18 209.64C284.054 209.65 283.926 209.65 283.8 209.64C284.51 208 282.21 208.43 279.92 208.78Z" fill="#40798C"/>
<path d="M284.68 209.63C285.348 209.606 286.017 209.64 286.68 209.73C286.93 209.1 285.86 209.54 284.68 209.63Z" fill="#40798C"/>
<path d="M258.2 203.46C259.2 203.91 258.96 201.85 259.49 202.46C260.75 200.91 252.61 203.71 258.2 203.46Z" fill="#40798C"/>
<path d="M281.45 212.8L280.75 211.3L279.49 212.4L281.45 212.8Z" fill="#40798C"/>
<path d="M264.58 210.56L267.97 211.27C267.97 211 268.38 210.88 268.97 210.81C266.82 210.59 264.53 210.09 264.58 210.56Z" fill="#40798C"/>
<path d="M268.93 210.81C269.849 210.958 270.788 210.937 271.7 210.75C270.776 210.703 269.851 210.723 268.93 210.81Z" fill="#40798C"/>
<path d="M276.73 212.97L275.73 212.6L273.32 212.35L276.73 212.97Z" fill="#40798C"/>
<path d="M227.84 206.91L224.05 207.07C223.62 207.66 224.6 208.14 226.05 208.07C227 207.67 228.35 207.57 227.84 206.91Z" fill="#40798C"/>
<path d="M238.69 212.8C237.69 212.35 237.69 211.96 237.16 211.33L236.85 213.5L238.69 212.8Z" fill="#40798C"/>
<path d="M227.73 212.45C227.3 213.03 222.13 213.82 226.89 214.04C227.33 213.45 231.12 213.23 227.73 212.45Z" fill="#40798C"/>
<path d="M171.69 204.64L172.65 204.69L172.88 200.4L171.69 204.64Z" fill="#40798C"/>
<path d="M121.17 211.75C125.51 213.14 122.45 208.95 126.34 210.59C127.46 209.59 123.16 209.25 124.34 208.37C121.53 209.35 120.18 208.61 121.17 211.75Z" fill="#40798C"/>
<path d="M124.3 208.37C124.786 208.196 125.26 207.993 125.72 207.76C125.214 207.875 124.732 208.082 124.3 208.37Z" fill="#40798C"/>
<path d="M215.36 550.45C215.36 550.45 213.45 565.21 207.95 565.28H188.28C188.28 565.28 195.65 562.61 195.73 550.17" fill="#2F334B"/>
<path d="M-1.09 528.48L2.5 485.41L-65.61 485.94L-67.44 482.34V348.39L34.87 289.98H74.92L75.54 523.99L-1.09 528.48Z" fill="#031B21"/>
<path d="M34.87 289.98V297.84H74.95L74.92 289.98H34.87Z" fill="#F6EFCD"/>
<path d="M34.87 297.84L-67.44 352V348.39L34.87 289.98V297.84Z" fill="#F6EFCD"/>
<path d="M34.87 297.84V480.3L-67.44 482.34V352L34.87 297.84Z" fill="#CFD8C8"/>
<path d="M2.44 485.41L-65.61 485.94L-67.44 482.34L5.17001 480.89C4.35772 481.331 3.68037 481.985 3.21017 482.781C2.73998 483.577 2.49455 484.486 2.5 485.41H2.44Z" fill="#F6EFCD"/>
<path d="M2.50002 485.41L-1.08998 528.48C-1.08998 528.48 -22.91 523.71 -61.09 517.48C-61.09 517.48 -65.85 517.48 -65.63 509.34V485.94L2.50002 485.41Z" fill="#AFBCAA"/>
<path d="M31.56 480.34L40.25 480.36L52.36 297.84H34.25L31.56 480.34Z" fill="#C3CCBC"/>
<path d="M31.61 299.33L31.51 480.36L34.43 480.3L36.19 480.34L38.23 297.84H34.43L31.61 299.33Z" fill="#F6EFCD"/>
<path d="M8.20001 538.67L20.44 535.72L21.54 530.65L18.96 489.34H11.76L8.20001 498.22L7.59 516.26L8.20001 538.67Z" fill="#031B21"/>
<path d="M14.83 483.89H39.56C39.56 483.89 42.89 484.78 42.65 489.34V495.57L23.17 494.92L14.83 483.89Z" fill="#AFA07E"/>
<path d="M187.62 565.27C192.138 565.27 195.8 558.46 195.8 550.06C195.8 541.66 192.138 534.85 187.62 534.85C183.102 534.85 179.44 541.66 179.44 550.06C179.44 558.46 183.102 565.27 187.62 565.27Z" fill="#22263A"/>
<path d="M45.93 543.97H50.83L58.45 490.91L53.76 477.55L46 483.21L42.19 525.18L45.93 543.97Z" fill="#031B21"/>
<path d="M55.2 563.83H73.14C73.14 563.83 78.74 563.4 79.54 549.24V544L60.54 542.82L55.2 563.83Z" fill="#2F334B"/>
<path d="M16.77 553.45H40.53C40.53 553.45 43.91 554.56 44.97 540.4V535.13L21.16 532.42L16.77 553.45Z" fill="#2F334B"/>
<path d="M55.2 563.83C58.6242 563.83 61.4 548.549 61.4 529.7C61.4 510.851 58.6242 495.57 55.2 495.57C51.7758 495.57 49 510.851 49 529.7C49 548.549 51.7758 563.83 55.2 563.83Z" fill="#353953"/>
<path d="M55.86 551.28C57.7875 551.28 59.35 541.421 59.35 529.26C59.35 517.099 57.7875 507.24 55.86 507.24C53.9325 507.24 52.37 517.099 52.37 529.26C52.37 541.421 53.9325 551.28 55.86 551.28Z" fill="#404363"/>
<path d="M16.77 553.31C19.8407 553.31 22.33 539.596 22.33 522.68C22.33 505.764 19.8407 492.05 16.77 492.05C13.6993 492.05 11.21 505.764 11.21 522.68C11.21 539.596 13.6993 553.31 16.77 553.31Z" fill="#353953"/>
<path d="M16.05 541.75C17.5577 541.75 18.78 533.046 18.78 522.31C18.78 511.574 17.5577 502.87 16.05 502.87C14.5423 502.87 13.32 511.574 13.32 522.31C13.32 533.046 14.5423 541.75 16.05 541.75Z" fill="#404363"/>
<path d="M226.19 514.73C227.19 516.12 226.96 518.73 226.96 518.73L225.2 546.32C225.42 551.16 223 551.27 223 551.27L71.41 549.15C68.416 548.21 65.3143 547.655 62.18 547.5C58.12 547.5 58.45 542.31 58.45 542.31V540H64.89V520.62L65.89 470.77C73.21 470.91 73.25 462.49 73.25 462.49L74.92 412V340.9C74.92 340.9 82.18 309.9 47.03 303.4L46.03 298.45L187.81 302.85L192.94 307.64C220.51 319.64 220.4 335.48 220.4 335.48L225.67 415.19L222.38 466.6C222.04 471.25 227.56 473.6 227.56 473.6V510.17C227.677 511.806 227.19 513.429 226.19 514.73Z" fill="#F6EFCD"/>
<path d="M74.92 340.92V412L73.28 462.47C73.28 462.47 73.28 470.89 65.92 470.75L64.92 520.6V540H58.48V519.21C58.092 509.327 57.0631 499.48 55.4 489.73C51.45 473.1 47.49 489.73 47.49 489.73C42.49 512.25 45.96 543.97 45.96 543.97C42.6131 540.755 38.5797 538.341 34.1642 536.912C29.7486 535.483 25.0661 535.076 20.47 535.72L18.79 495.79L22.67 493.11L31.75 494.29L42.44 493.9C42.4677 490.234 42.8765 486.581 43.66 483L37.21 478L40.43 347.18L42.92 310.71C43.18 304.11 47.03 303.4 47.03 303.4C82.18 309.94 74.92 340.92 74.92 340.92Z" fill="#E8DFC0"/>
<path d="M22 499.75L24.07 522C24.2209 524.275 25.0703 526.447 26.5021 528.221C27.934 529.994 29.8785 531.283 32.07 531.91C32.07 531.91 39.21 534.85 40.96 535.09V503.88L22 499.75Z" fill="#CEC29F"/>
<path d="M36.35 502.87V514.34C37.8307 514.907 39.3953 515.225 40.98 515.28V503.88L36.35 502.87Z" fill="#353953"/>
<path d="M36.35 521.82V533.63C37.8377 534.288 39.3893 534.79 40.98 535.13V522.83L36.35 521.82Z" fill="#353953"/>
<path d="M87.6 432.89L100.78 496C100.78 496 101.51 502.48 112.57 504.09C123.63 505.7 151.82 509.28 151.82 509.28L195.17 504.55C195.17 504.55 199.6 503.86 200.81 497.05L215.31 435.05L87.6 432.89Z" fill="#E8DFC0"/>
<path d="M98.65 540L102.65 525.62L87.65 521.86C87.65 521.86 78.44 519 76.68 527C75.6759 531.266 75.0898 535.62 74.93 540H98.65Z" fill="#353953"/>
<path d="M200.15 541.14H221.68L221.41 533.21C221.41 533.21 221.7 522.41 210.92 524.21L197.92 526.51L200.15 541.14Z" fill="#353953"/>
<path d="M104.29 540L195.29 541.18C195.29 541.18 194.85 518.18 180.93 518.18L119.57 517.51C119.57 517.51 109 515 104.29 540Z" fill="#353953"/>
<path d="M101.8 489.34C101.8 489.34 102.39 493.43 108.98 494.34L152.19 500.47L195.25 495.75C195.25 495.75 199.57 494.89 200.25 491.04L151.47 495.6L101.8 489.34Z" fill="#353953"/>
<path d="M99.75 477.55L100.34 481.32L151.45 487.14L201.54 483.36L202.72 479.27L151.45 482.34L99.75 477.55Z" fill="#353953"/>
<path d="M97.12 466.07L98.43 470.31L143.69 473.31C143.69 473.31 152.77 478.18 160.24 473.31L203.6 472.21L204.77 467.81L157.77 468.91C157.77 468.91 152.65 472.37 146.2 468.44L97.12 466.07Z" fill="#353953"/>
<path d="M95.58 455.06L96.24 458.6L139.3 459.78C139.3 459.78 138.8 458.78 138.86 455.06H95.58Z" fill="#353953"/>
<path d="M166.32 456C166.345 457.587 166.003 459.158 165.32 460.59H205.75L206.68 456.7L166.32 456Z" fill="#353953"/>
<path d="M93.45 444.53L94.45 446.53L139.71 447C140.082 446.274 140.549 445.601 141.1 445L93.45 444.53Z" fill="#353953"/>
<path d="M164.64 445.79L208.72 447L208.14 449.28L165.33 448C165.312 447.213 165.073 446.447 164.64 445.79Z" fill="#353953"/>
<path d="M152.15 467.77C145.86 467.77 140.75 462.07 140.75 455.06C140.75 448.05 145.86 442.35 152.15 442.35C158.44 442.35 163.55 448.05 163.55 455.06C163.55 462.07 158.44 467.77 152.15 467.77ZM152.15 443.95C146.69 443.95 142.24 448.95 142.24 455.06C142.24 461.17 146.69 466.17 152.15 466.17C157.61 466.17 162.06 461.17 162.06 455.06C162.06 448.95 157.61 444 152.15 444V443.95Z" fill="#353953"/>
<path d="M142.81 460.8L150.94 454L152.6 443.16L153.91 454L161.33 461.11L152.48 457.42L142.81 460.8Z" fill="#353953"/>
<path d="M92 464.61C92 464.61 86.84 461.25 85.19 457.42L81.79 430.65C81.79 430.65 81.79 418.57 75.09 417.45C75.09 417.45 70.91 416.39 69.81 415.32V455.06C69.81 455.06 69.98 461.55 73.33 462.49L79.22 464.02L92 464.61Z" fill="#E8DFC0"/>
<path d="M211.14 468L224.14 466.12C224.14 466.12 226.93 465.73 227.5 459.36L228.03 419.36C228.03 419.36 223.3 421.84 222.46 430.76L219.24 458.83C219.24 458.83 215.83 465.32 211.14 468Z" fill="#E8DFC0"/>
<path d="M82.84 532.42C85.2646 532.42 87.23 530.307 87.23 527.7C87.23 525.093 85.2646 522.98 82.84 522.98C80.4155 522.98 78.45 525.093 78.45 527.7C78.45 530.307 80.4155 532.42 82.84 532.42Z" fill="#FBC787"/>
<path d="M215.4 533.79C217.372 533.79 218.97 532.075 218.97 529.96C218.97 527.845 217.372 526.13 215.4 526.13C213.428 526.13 211.83 527.845 211.83 529.96C211.83 532.075 213.428 533.79 215.4 533.79Z" fill="#FBC787"/>
<path d="M65.14 508.57L64.89 539.97H58.45V519.21L57.64 507.46L65.14 508.57Z" fill="#CEC29F"/>
<path d="M74.27 489.85C74.27 489.85 73 508.77 83.38 511.85L100.3 516.21L103.3 507.72C103.3 507.72 94.02 504.18 93.85 494.28L74.27 489.85Z" fill="#FBC787"/>
<path d="M198.4 509.3L200.23 517.38L214 514.73C214 514.73 221.91 512.04 223 500.5L224 491.5L207.4 496C207.4 496 206.64 507.48 198.4 509.3Z" fill="#FBC787"/>
<path d="M72.51 477.55L74.27 489.85L93.82 494.33C93.82 494.33 94.26 481.12 87.23 479.83C80.2 478.54 72.51 477.55 72.51 477.55Z" fill="#E8DFC0"/>
<path d="M207.4 496L224 491.5V480.3L213.93 482.3C213.93 482.3 207.51 483.8 207.4 496Z" fill="#E8DFC0"/>
<path d="M74.92 412C74.92 412 85.62 412.43 87.6 417.78L215.31 420.5C215.31 420.5 216.59 416.5 223.15 415.58V408.5L74.92 405.05V412Z" fill="#353953"/>
<path d="M74.92 405.06V343.75L221.22 348.42L223.15 408.52L74.92 405.06Z" fill="#63A2A8"/>
<path d="M70.75 303.42C61.7448 301.508 52.5659 300.532 43.36 300.51L44.24 289.98C44.24 289.98 44.05 288.88 47.15 288.72C47.15 288.72 159.77 289 196.71 294.85V305.78L188.51 306.96L70.75 303.42Z" fill="#E8DFC0"/>
<path d="M188.51 307C188.51 307 190.41 299.29 196.71 294.89V305.82L188.51 307Z" fill="#DAD2B8"/>
<path d="M70.75 303.42C70.75 303.42 64.2 292.81 44.24 290L43.36 300.53C43.36 300.53 52.19 300.12 70.75 303.42Z" fill="#DAD2B8"/>
<path d="M60.43 353.42C60.43 353.42 69.03 352.95 69.14 357.58C69.25 362.21 68.45 404.48 68.45 404.48C64.9388 404.277 61.4561 405.214 58.52 407.15L44.86 398.07V358.07C44.86 358.07 44.32 353.19 60.43 353.42Z" fill="#46747C"/>
<path d="M74.92 343.75V345.95L221.28 350.34L221.22 348.42L74.92 343.75Z" fill="#353953"/>
<path d="M156.44 348.39L131.84 406.39L158.48 407.01L184.56 349.24L156.44 348.39Z" fill="#77B2BC"/>
<path d="M149.04 348.39L124.5 406.22L120.04 406.12L145.01 348.39H149.04Z" fill="#77B2BC"/>
<path d="M68.41 406.22C68.41 406.22 69.07 411.16 66.5 412.79C66.5 412.79 61.01 411.79 58.6 409.51C58.5589 409.013 58.6604 408.515 58.8924 408.074C59.1244 407.633 59.4774 407.267 59.91 407.02L53.62 401.29L55.52 349.57C55.52 349.57 62.26 346.57 69.14 347.04V352.71C69.14 352.71 67.02 350.9 59.77 352.4L59.33 400.82L64.45 406.22C65.7502 405.896 67.1098 405.896 68.41 406.22Z" fill="#353953"/>
<path d="M48.34 357.27V396C48.34 396 48.47 402.29 57.72 401.34C57.72 401.34 61.38 400.48 61.38 397.1V355.9C61.38 355.9 60.94 352.9 53.93 352.76C53.93 352.71 48.34 352.08 48.34 357.27Z" fill="#F6EFCD"/>
<path d="M145.54 415.7L129.92 403.77C128.696 402.85 127.25 402.27 125.73 402.09L83.93 400.8L82 399.63L125.57 400.51C127.315 400.767 128.96 401.481 130.34 402.58L150 415C150 415 150.91 416.24 149.37 416.21L145.54 415.7Z" fill="#404363"/>
<path d="M203.37 415.84L190.56 405.42C189.762 404.776 188.791 404.383 187.77 404.29L149.24 402.29L147.44 401.29L187.44 402.74C187.44 402.74 191.04 403.22 192.04 404.56L206.69 415.56C206.69 415.56 207.75 416.94 206.6 416.79C205.441 416.904 204.283 416.564 203.37 415.84Z" fill="#404363"/>
<path d="M225.64 415.21C225.64 415.21 230.4 414.97 230.64 412.14C230.633 411.867 230.546 411.601 230.39 411.377C230.233 411.153 230.014 410.98 229.76 410.88L235.25 407.74L234.52 355.54C234.52 355.54 226.87 352.28 221.36 352L221.48 356C221.48 356 229.72 355.92 230.48 357.5L231.14 407.01L225.27 409.44L225.64 415.21Z" fill="#353953"/>
<path d="M240.47 400.58L239.7 363.09C239.7 363.09 240.08 359.67 233 358.61C233 358.61 228.4 356.96 228.28 360.73L228.93 404.36C228.93 404.36 229.15 407.43 232.78 407.02C236.41 406.61 240.56 404.89 240.47 400.58Z" fill="#F6EFCD"/>
<path d="M68.16 355.34C68.7785 355.425 69.3453 355.731 69.7554 356.202C70.1655 356.672 70.3909 357.276 70.39 357.9L69.8 404.44H68.45L69.14 358.88C69.14 358.88 69.39 356.2 68.16 355.34Z" fill="#353953"/>
<path d="M65.92 470.77L48.34 458.84C48.34 458.84 42.18 454.59 37.79 454.59L37.89 450.46C43.6226 450.784 49.2157 452.354 54.28 455.06C60.3427 458.18 66.7093 460.669 73.28 462.49C73.28 462.49 73.28 471.91 65.92 470.77Z" fill="#F6EFCD"/>
<path d="M18.76 495.79C18.76 495.79 18.85 490.74 14.13 490.96C6.44 491.32 8.20001 538.67 8.20001 538.67H7V514C7 514 6.29 486.41 13.81 484.05C13.81 484.05 19.63 481.79 22.6 493.05L18.76 495.79Z" fill="#CEC29F"/>
<path d="M243.31 637.63H274.63C274.63 637.63 281.46 631.63 282.16 603.24L247.53 602.51L243.31 637.63Z" fill="#2F334B"/>
<path d="M243.31 637.64C247.447 637.64 250.8 626.877 250.8 613.6C250.8 600.323 247.447 589.56 243.31 589.56C239.173 589.56 235.82 600.323 235.82 613.6C235.82 626.877 239.173 637.64 243.31 637.64Z" fill="#353953"/>
<path d="M243.31 628.86C245.641 628.86 247.53 621.746 247.53 612.97C247.53 604.194 245.641 597.08 243.31 597.08C240.979 597.08 239.09 604.194 239.09 612.97C239.09 621.746 240.979 628.86 243.31 628.86Z" fill="#404363"/>
<path d="M260.26 641.8H291.58C291.58 641.8 298.41 635.74 299.1 607.2L264.47 606.47L260.26 641.8Z" fill="#2F334B"/>
<path d="M260.26 641.8C264.397 641.8 267.75 631.037 267.75 617.76C267.75 604.483 264.397 593.72 260.26 593.72C256.123 593.72 252.77 604.483 252.77 617.76C252.77 631.037 256.123 641.8 260.26 641.8Z" fill="#353953"/>
<path d="M260.26 633.03C262.591 633.03 264.48 625.916 264.48 617.14C264.48 608.364 262.591 601.25 260.26 601.25C257.929 601.25 256.04 608.364 256.04 617.14C256.04 625.916 257.929 633.03 260.26 633.03Z" fill="#404363"/>
<path d="M281.24 646.85H319.13C319.13 646.85 327.4 640.47 328.24 610.44L286.34 609.67L281.24 646.85Z" fill="#2F334B"/>
<path d="M281.24 646.84C286.244 646.84 290.3 633.82 290.3 617.76C290.3 601.7 286.244 588.68 281.24 588.68C276.236 588.68 272.18 601.7 272.18 617.76C272.18 633.82 276.236 646.84 281.24 646.84Z" fill="#353953"/>
<path d="M281.24 636.22C284.057 636.22 286.34 627.615 286.34 617C286.34 606.385 284.057 597.78 281.24 597.78C278.423 597.78 276.14 606.385 276.14 617C276.14 627.615 278.423 636.22 281.24 636.22Z" fill="#404363"/>
<path d="M345.1 622.88L353.36 530.51L196.55 531.66L192.35 523.94V236.67L427.87 111.38H520.1L521.51 613.27L345.1 622.88Z" fill="#031B21"/>
<path d="M427.88 111.39V128.25H520.14L520.1 111.39H427.88Z" fill="#F6EFCD"/>
<path d="M427.88 128.25L192.35 244.41V236.67L427.88 111.39V128.25Z" fill="#F6EFCD"/>
<path d="M427.88 128.25V519.56L192.35 523.94V244.41L427.88 128.25Z" fill="#CFD8C8"/>
<path d="M353.22 530.52L196.55 531.65L192.35 523.94L359.52 520.83C357.682 521.697 356.127 523.067 355.036 524.783C353.946 526.498 353.365 528.487 353.36 530.52H353.22Z" fill="#F6EFCD"/>
<path d="M353.35 530.51L345.1 622.88C345.1 622.88 294.86 612.67 207 599.22C207 599.22 196 599.14 196.54 581.77V531.66L353.35 530.51Z" fill="#C3CCBC"/>
<path d="M420.26 519.65L440.28 519.68L468.15 128.25H426.45L420.26 519.65Z" fill="#C3CCBC"/>
<path d="M420.38 131.45L420.15 519.68L426.87 519.56L430.93 519.65L435.61 128.25H426.87L420.38 131.45Z" fill="#F6EFCD"/>
<path d="M366.49 644.74L394.67 638.41L397.19 627.54L391.25 538.95H374.69L366.49 558L365.08 596.69L366.49 644.74Z" fill="#031B21"/>
<path d="M381.74 527.27H438.67C438.67 527.27 446.36 529.17 445.8 538.94V552.31L401 550.92L381.74 527.27Z" fill="#CAC1A4"/>
<path d="M779.55 701.64C789.944 701.64 798.37 687.815 798.37 670.76C798.37 653.705 789.944 639.88 779.55 639.88C769.156 639.88 760.73 653.705 760.73 670.76C760.73 687.815 769.156 701.64 779.55 701.64Z" fill="#22263A"/>
<path d="M453.34 656.11H464.63L482.17 542.32L471.38 513.66L453.5 525.79L444.74 615.82L453.34 656.11Z" fill="#031B21"/>
<path d="M474.68 698.7H516C516 698.7 528.87 697.78 530.72 667.43V656.11L486.91 653.59L474.68 698.7Z" fill="#2F334B"/>
<path d="M386.22 676.44H440.92C440.92 676.44 448.7 678.82 451.14 648.44V637.15L396.31 631.33L386.22 676.44Z" fill="#2F334B"/>
<path d="M474.68 698.7C482.556 698.7 488.94 665.927 488.94 625.5C488.94 585.073 482.556 552.3 474.68 552.3C466.804 552.3 460.42 585.073 460.42 625.5C460.42 665.927 466.804 698.7 474.68 698.7Z" fill="#353953"/>
<path d="M476.2 671.8C480.64 671.8 484.24 650.654 484.24 624.57C484.24 598.486 480.64 577.34 476.2 577.34C471.76 577.34 468.16 598.486 468.16 624.57C468.16 650.654 471.76 671.8 476.2 671.8Z" fill="#404363"/>
<path d="M386.22 676.14C393.289 676.14 399.02 646.725 399.02 610.44C399.02 574.155 393.289 544.74 386.22 544.74C379.151 544.74 373.42 574.155 373.42 610.44C373.42 646.725 379.151 676.14 386.22 676.14Z" fill="#353953"/>
<path d="M384.55 651.37C388.013 651.37 390.82 632.7 390.82 609.67C390.82 586.64 388.013 567.97 384.55 567.97C381.087 567.97 378.28 586.64 378.28 609.67C378.28 632.7 381.087 651.37 384.55 651.37Z" fill="#404363"/>
<path d="M868.34 593.4C870.6 596.4 870.1 602 870.1 602L866.1 661.17C866.6 671.55 861.04 671.8 861.04 671.8L512.04 667.24C512.04 667.24 500.16 663.7 490.79 663.7C481.42 663.7 482.19 652.57 482.19 652.57V647.57H497V606L499.36 499.08C516.23 499.37 516.31 481.33 516.31 481.33L520.1 373.09V220.64C520.1 220.64 536.79 154.21 455.87 140.22L453.5 129.6L779.91 139L791.71 149.28C855.18 175.08 854.93 208.97 854.93 208.97L867.07 379.97L859.49 490.23C858.72 500.23 871.42 505.23 871.42 505.23L871.37 583.67C871.639 587.181 870.555 590.663 868.34 593.4Z" fill="#F6EFCD"/>
<path d="M520.1 220.64V373.13L516.31 481.37C516.31 481.37 516.23 499.37 499.36 499.12L497 606V647.49H482.16V603C480.16 564 475.08 539.78 475.08 539.78C465.98 504.12 456.88 539.78 456.88 539.78C445.24 588.08 453.34 656.1 453.34 656.1C426.02 632.33 394.67 638.4 394.67 638.4L390.79 552.76L399.72 547.03L420.63 549.56L445.24 548.71C445.317 540.817 446.28 532.958 448.11 525.28L433.28 514.66L440.69 234.11L446.42 155.89C447.02 141.73 455.87 140.21 455.87 140.21C536.79 154.21 520.1 220.64 520.1 220.64Z" fill="#E8DFC0"/>
<path d="M398.21 561.28L403.01 609.08C403.01 609.08 403.14 624.63 421.47 630.32C421.47 630.32 437.91 636.65 441.96 637.15V570.15L398.21 561.28Z" fill="#E0D6B3"/>
<path d="M431.28 568V592.59C431.28 592.59 437.74 594.86 441.96 594.59V570.13L431.28 568Z" fill="#353953"/>
<path d="M431.28 608.61V633.93C434.741 635.348 438.331 636.427 442 637.15V610.77L431.28 608.61Z" fill="#353953"/>
<path d="M549.27 417.89L579.61 553.28C579.61 553.28 581.3 567.17 606.76 570.63C632.22 574.09 697.12 581.77 697.12 581.77L796.93 571.61C796.93 571.61 807.13 570.13 809.93 555.54L843.32 422.48L549.27 417.89Z" fill="#E8DFC0"/>
<path d="M574.72 647.52L583.83 616.67L549.27 608.61C549.27 608.61 528.19 602.51 524.15 619.7C520.11 636.89 520.15 647.52 520.15 647.52H574.72Z" fill="#353953"/>
<path d="M808.4 650.05H858L857.37 633.05C857.37 633.05 858.04 609.88 833.22 613.71L803.32 618.64L808.4 650.05Z" fill="#353953"/>
<path d="M587.71 647.52L797.1 650.05C797.1 650.05 796.1 600.65 764.1 600.65L622.81 599.22C622.81 599.22 598.5 594.08 587.71 647.52Z" fill="#353953"/>
<path d="M582 538.94C582 538.94 583.35 547.71 598.53 549.73C613.71 551.75 698 562.89 698 562.89L797.13 552.77C797.13 552.77 807.13 550.92 808.6 542.65L696.31 552.43L582 538.94Z" fill="#353953"/>
<path d="M577.25 513.66L578.6 521.75L696.28 534.22L811.6 526.13L814.3 517.37L696.28 523.94L577.25 513.66Z" fill="#353953"/>
<path d="M571.18 489L574.18 498.1L678.37 504.51C678.37 504.51 699.28 514.96 716.47 504.51L816.28 502.15L818.98 492.71L710.74 495.07C710.74 495.07 698.94 502.49 684.1 494.07L571.18 489Z" fill="#353953"/>
<path d="M567.64 465.44L569.16 473.02L668.29 475.55C668.29 475.55 667.16 473.4 667.29 465.44H567.64Z" fill="#353953"/>
<path d="M730.51 467.46C730.51 467.46 730.63 473.53 728.23 477.32H821.29L823.44 468.98L730.51 467.46Z" fill="#353953"/>
<path d="M562.75 442.85L565.11 447.23L669.31 448.23C670.171 446.63 671.247 445.156 672.51 443.85L562.75 442.85Z" fill="#353953"/>
<path d="M726.63 445.54L828.12 448.24L826.77 453.13L728.23 450.26C728.23 450.26 728.4 448.49 726.63 445.54Z" fill="#353953"/>
<path d="M697.88 492.7C683.41 492.7 671.63 480.47 671.63 465.44C671.63 450.41 683.41 438.18 697.88 438.18C712.35 438.18 724.13 450.41 724.13 465.44C724.13 480.47 712.36 492.7 697.88 492.7ZM697.88 441.61C685.3 441.61 675.07 452.3 675.07 465.44C675.07 478.58 685.3 489.26 697.88 489.26C710.46 489.26 720.7 478.57 720.7 465.44C720.7 452.31 710.46 441.61 697.88 441.61Z" fill="#353953"/>
<path d="M676.39 477.75L695.1 463.16L698.92 439.92L701.93 463.16L719.01 478.41L698.64 470.5L676.39 477.75Z" fill="#353953"/>
<path d="M559.3 485.92C559.3 485.92 547.41 478.71 543.62 470.5L535.78 413.09C535.78 413.09 535.91 387.17 520.35 384.76C520.35 384.76 510.74 382.49 508.21 380.21V465.44C508.21 465.44 508.59 479.35 516.31 481.37L529.88 484.66L559.3 485.92Z" fill="#E8DFC0"/>
<path d="M833.69 493.09L863.69 489.09C863.69 489.09 870.11 488.25 871.41 474.59L872.62 388.78C872.62 388.78 861.75 394.09 859.81 413.22L852.39 473.41C852.39 473.41 844.48 487.44 833.69 493.09Z" fill="#E8DFC0"/>
<path d="M538.31 631.34C543.899 631.34 548.43 626.809 548.43 621.22C548.43 615.631 543.899 611.1 538.31 611.1C532.721 611.1 528.19 615.631 528.19 621.22C528.19 626.809 532.721 631.34 538.31 631.34Z" fill="#FBC787"/>
<path d="M843.5 634.29C848.04 634.29 851.72 630.61 851.72 626.07C851.72 621.53 848.04 617.85 843.5 617.85C838.96 617.85 835.28 621.53 835.28 626.07C835.28 630.61 838.96 634.29 843.5 634.29Z" fill="#FBC787"/>
<path d="M497.57 580.18L497 647.52H482.16V603.01L480.31 577.81L497.57 580.18Z" fill="#E0D6B3"/>
<path d="M518.58 540C518.58 540 515.67 580.59 539.58 587.29L578.53 596.65L585.36 578.44C585.36 578.44 563.99 570.85 563.61 549.61L518.58 540Z" fill="#FBC787"/>
<path d="M804.35 581.77L808.57 599.08L840.26 593.4C840.26 593.4 858.47 587.63 861 562.89L863.27 543.58L825.09 553.19C825.09 553.19 823.32 577.85 804.35 581.77Z" fill="#FBC787"/>
<path d="M514.54 513.66L518.54 540.04L563.54 549.65C563.54 549.65 564.54 521.33 548.36 518.54C532.18 515.75 514.54 513.66 514.54 513.66Z" fill="#E8DFC0"/>
<path d="M825.09 553.19L863.27 543.58V519.58L840.09 523.96C840.09 523.96 825.34 527.06 825.09 553.19Z" fill="#E8DFC0"/>
<path d="M520.1 373.13C520.1 373.13 544.71 374.06 549.27 385.52L843.27 391.35C843.27 391.35 846.27 382.83 861.27 380.8V365.63L520.1 358.21V373.13Z" fill="#353953"/>
<path d="M520.1 358.21V226.71L856.89 236.72L861.34 365.63L520.1 358.21Z" fill="#63A2A8"/>
<path d="M510.49 140.22C489.74 136.119 468.642 134.029 447.49 133.98L449.49 111.39C449.49 111.39 449.05 109.03 456.18 108.69C456.18 108.69 715.45 109.28 800.5 121.84V145.28L781.62 147.8L510.49 140.22Z" fill="#E8DFC0"/>
<path d="M781.59 147.8C781.59 147.8 785.97 131.28 800.47 121.8V145.24L781.59 147.8Z" fill="#DAD2B8"/>
<path d="M510.49 140.22C510.49 140.22 495.4 117.46 449.49 111.39L447.49 133.98C447.49 133.98 467.75 133.13 510.49 140.22Z" fill="#DAD2B8"/>
<path d="M486.72 247.44C486.72 247.44 506.53 246.44 506.78 256.38C507.03 266.32 505.18 357 505.18 357C505.18 357 492.79 355.9 482.33 362.73L450.89 343.26V257.43C450.89 257.43 449.65 247 486.72 247.44Z" fill="#46747C"/>
<path d="M520.1 226.71V231.43L857.04 240.84L856.89 236.72L520.1 226.71Z" fill="#353953"/>
<path d="M707.77 236.67L651.12 361.06L712.46 362.39L772.5 238.48L707.77 236.67Z" fill="#77B2BC"/>
<path d="M690.72 236.67L634.24 360.69L623.95 360.47L681.44 236.67H690.72Z" fill="#77B2BC"/>
<path d="M505.09 360.69C505.09 360.69 506.61 371.28 500.71 374.78C500.71 374.78 488.07 372.71 482.5 367.78C482.411 366.691 482.649 365.6 483.183 364.647C483.718 363.694 484.524 362.922 485.5 362.43L471 350.12L475.38 239.18C475.38 239.18 490.89 232.74 506.74 233.77V245.93C506.74 245.93 501.85 242.05 485.16 245.25L484.16 349.11L496 360.69C498.99 359.992 502.1 359.992 505.09 360.69Z" fill="#353953"/>
<path d="M458.9 255.71V338.65C458.9 338.65 459.19 352.14 480.48 350.12C480.48 350.12 488.91 348.26 488.91 341.01V252.67C488.91 252.67 487.91 246.26 471.76 245.93C471.76 245.93 458.9 244.58 458.9 255.71Z" fill="#F6EFCD"/>
<path d="M682.67 381L646.67 355.42C646.67 355.42 642.07 352.08 637.02 351.82L540.79 349.05L536.33 346.55L636.64 348.44C640.621 348.969 644.404 350.493 647.64 352.87L693 379.4C693 379.4 695.09 382.07 691.55 382L682.67 381Z" fill="#404363"/>
<path d="M815.8 381.33L786.3 359C784.433 357.607 782.212 356.769 779.89 356.58L691.19 352.37L687.03 350.31L779.12 353.42C779.12 353.42 787.41 354.42 789.72 357.33L823.44 380.98C823.44 380.98 825.88 383.98 823.24 383.61C820.564 383.791 817.915 382.979 815.8 381.33Z" fill="#404363"/>
<path d="M867.07 380C867.07 380 878.07 379.49 878.53 373.42C878.51 372.821 878.308 372.243 877.951 371.762C877.593 371.281 877.098 370.921 876.53 370.73L889.17 363.98L887.47 252C887.47 252 869.84 245 857.16 244.41L857.46 253.01C857.46 253.01 876.46 252.84 878.2 256.21L879.71 362.39L866.19 367.61L867.07 380Z" fill="#353953"/>
<path d="M901.21 348.6L899.44 268.18C899.44 268.18 900.32 260.85 884.01 258.57C884.01 258.57 873.43 255.03 873.16 263.12L874.65 356.69C874.65 356.69 875.16 363.29 883.51 362.39C891.86 361.49 901.41 357.83 901.21 348.6Z" fill="#F6EFCD"/>
<path d="M504.52 251.58C504.52 251.58 509.73 252.25 509.65 257.05L508.3 356.86L505.18 356.95L506.78 259.25C506.78 259.25 507.36 253.41 504.52 251.58Z" fill="#353953"/>
<path d="M499.36 499.12L458.9 473.53C458.9 473.53 444.7 464.42 434.61 464.43L434.84 455.57C447.955 456.255 460.791 459.614 472.56 465.44C486.592 472.156 501.245 477.491 516.31 481.37C516.31 481.37 516.3 501.56 499.36 499.12Z" fill="#F6EFCD"/>
<path d="M842.28 671.54C842.28 671.54 837.89 701.54 825.22 701.64H780C780 701.64 797 696.23 797.15 670.97" fill="#2F334B"/>
<path d="M390.79 552.77C390.79 552.77 391 542 380.14 542.42C362.42 543.2 366.49 644.74 366.49 644.74H363.81V591.88C363.81 591.88 362.17 532.71 379.49 527.65C379.49 527.65 392.88 522.8 399.72 547.04L390.79 552.77Z" fill="#CEC29F"/>
</g>
<defs>
<linearGradient id="paint0_linear_836:26613" x1="464" y1="1.00537e-05" x2="1006" y2="432" gradientUnits="userSpaceOnUse">
<stop stop-color="#6AA19A"/>
<stop offset="0.0001" stop-color="#598C84"/>
<stop offset="1" stop-color="#70A9A1"/>
</linearGradient>
</defs>
</svg>
